<svg width="56" height="56" viewBox="0 0 56 56" fill="none" xmlns="http://www.w3.org/2000/svg">
<rect x="33.0742" y="5.75" width="20.6758" height="0.5" stroke="white" stroke-width="0.5"/>
<rect x="53.25" y="28.75" width="22.5" height="0.5" transform="rotate(-90 53.25 28.75)" stroke="white" stroke-width="0.5"/>
<rect x="2.25" y="28.75" width="22.5" height="0.5" transform="rotate(-90 2.25 28.75)" stroke="white" stroke-width="0.5"/>
<rect x="2.25" y="5.75" width="20.5439" height="0.5" stroke="white" stroke-width="0.5"/>
<rect x="2.25" y="53.25" width="51.5" height="0.5" stroke="#919191" stroke-width="0.5" stroke-dasharray="1 4"/>
<rect x="53.25" y="53.75" width="22.5" height="0.5" transform="rotate(-90 53.25 53.75)" stroke="#919191" stroke-width="0.5" stroke-dasharray="1 4"/>
<rect x="2.25" y="53.75" width="22.5" height="0.5" transform="rotate(-90 2.25 53.75)" stroke="#919191" stroke-width="0.5" stroke-dasharray="1 4"/>
<rect x="53" y="53" width="1" height="1" fill="#919191"/>
<rect x="2" y="53" width="1" height="1" fill="#919191"/>
<path d="M22.7071 6L28 0.707107L33.2929 6L28 11.2929L22.7071 6Z" stroke="white"/>
<path d="M25 6L28 3L31 6L28 9L25 6Z" fill="#77E609"/>
<rect width="5" height="1" transform="matrix(-1 0 0 1 5 29)" fill="white"/>
<rect width="3" height="1" transform="matrix(-1 0 0 1 4 31)" fill="white"/>
<rect width="5" height="1" transform="matrix(-1 0 0 1 56 29)" fill="white"/>
<rect width="3" height="1" transform="matrix(-1 0 0 1 55 31)" fill="white"/>
<path fill-rule="evenodd" clip-rule="evenodd" d="M32.1851 18.5C31.7962 18.5354 31.4058 18.6061 31.0182 18.7131C30.5592 18.8397 30.293 19.3034 30.4236 19.7486C30.5542 20.1938 31.0322 20.452 31.4911 20.3253C32.3433 20.0901 33.205 20.0944 34.0002 20.3172L32.1851 18.5ZM36.782 21.6862C36.9264 21.6514 37.0634 21.58 37.1774 21.4717C37.5184 21.1478 37.5242 20.6172 37.1903 20.2864C36.2058 19.3111 34.9591 18.7116 33.6304 18.5311L36.782 21.6862ZM20.4423 37.3359C20.202 36.9361 19.6729 36.8009 19.2607 37.0341C18.8485 37.2673 18.7092 37.7805 18.9496 38.1803C19.4488 39.0107 20.0591 39.7477 20.7597 40.3897L21.9623 39.1858C21.369 38.6445 20.8578 38.0269 20.4423 37.3359ZM23.9427 42.427C23.0748 42.0513 22.265 41.586 21.532 41.0323L22.7428 39.8202C23.3216 40.2393 23.9594 40.5986 24.647 40.8963C25.0827 41.085 25.2783 41.5806 25.0838 42.0033C24.8894 42.426 24.3785 42.6157 23.9427 42.427ZM27.0671 20.7736C26.8205 20.3633 26.1019 20.1146 25.3719 20.5193C24.6446 20.9225 24.5167 21.6333 24.759 22.0364L27.6686 26.8765C27.9089 27.2763 27.7696 27.7895 27.3574 28.0227C26.9452 28.2559 26.4162 28.1207 26.1758 27.7209L22.2964 21.2674C22.0498 20.8572 21.3311 20.6084 20.6011 21.0131C19.8738 21.4164 19.7459 22.1272 19.9882 22.5302L24.3526 29.7904C24.5929 30.1902 24.4536 30.7034 24.0414 30.9366C23.6292 31.1698 23.1002 31.0346 22.8598 30.6348L20.9201 27.4081C20.6735 26.9978 19.9549 26.7491 19.2249 27.1538C18.4975 27.557 18.3696 28.2678 18.6119 28.6709L22.9763 35.931C24.8298 39.0143 29.4037 40.0149 33.2825 37.8645C37.1586 35.7156 38.5364 31.4227 36.6872 28.3465L33.7776 23.5064C33.531 23.0962 32.8124 22.8474 32.0824 23.2521C31.3551 23.6554 31.2272 24.3662 31.4695 24.7692L33.4092 27.9959C33.5253 28.1891 33.557 28.4192 33.4974 28.6351C33.4377 28.851 33.2916 29.0349 33.0915 29.1458C31.3146 30.131 30.77 32.0358 31.548 33.3299C31.7884 33.7298 31.6491 34.2429 31.2369 34.4761C30.8246 34.7093 30.2956 34.5742 30.0552 34.1743C29.0038 32.4252 29.4286 30.3191 30.7867 28.8305C31.1664 28.4143 31.2964 27.8089 31.0078 27.3289L27.0671 20.7736Z" fill="white"/>
</svg>
