<svg width="248" height="48" viewBox="0 0 248 48" fill="none" xmlns="http://www.w3.org/2000/svg">
<g clip-path="url(#clip0_66_955)">
<path d="M-23.2423 -1.26318L-22.8889 -0.781981L-59.6466 49.2631L-60 48.7819L-23.2423 -1.26318Z" fill="#5E5C61"/>
<path d="M-18.2439 -1.26318L-17.8905 -0.781981L-54.6482 49.2631L-55.0016 48.7819L-18.2439 -1.26318Z" fill="#5E5C61"/>
<path d="M-13.2455 -1.26318L-12.8921 -0.781981L-49.6498 49.2631L-50.0032 48.7819L-13.2455 -1.26318Z" fill="#5E5C61"/>
<path d="M-8.24713 -1.26318L-7.89369 -0.781981L-44.6514 49.2631L-45.0048 48.7819L-8.24713 -1.26318Z" fill="#5E5C61"/>
<path d="M-3.24874 -1.26318L-2.8953 -0.781981L-39.653 49.2631L-40.0064 48.7819L-3.24874 -1.26318Z" fill="#5E5C61"/>
<path d="M1.74965 -1.26318L2.10309 -0.781981L-34.6546 49.2631L-35.0081 48.7819L1.74965 -1.26318Z" fill="#5E5C61"/>
<path d="M6.74804 -1.26318L7.10148 -0.781981L-29.6562 49.2631L-30.0097 48.7819L6.74804 -1.26318Z" fill="#5E5C61"/>
<path d="M11.7464 -1.26318L12.0999 -0.781981L-24.6578 49.2631L-25.0113 48.7819L11.7464 -1.26318Z" fill="#5E5C61"/>
<path d="M16.7448 -1.26318L17.0983 -0.781981L-19.6594 49.2631L-20.0129 48.7819L16.7448 -1.26318Z" fill="#5E5C61"/>
<path d="M21.7432 -1.26318L22.0967 -0.781981L-14.6611 49.2631L-15.0145 48.7819L21.7432 -1.26318Z" fill="#5E5C61"/>
<path d="M26.7416 -1.26318L27.095 -0.781981L-9.66267 49.2631L-10.0161 48.7819L26.7416 -1.26318Z" fill="#5E5C61"/>
<path d="M31.74 -1.26318L32.0934 -0.781981L-4.66428 49.2631L-5.01772 48.7819L31.74 -1.26318Z" fill="#5E5C61"/>
<path d="M36.7384 -1.26318L37.0918 -0.781981L0.33411 49.2631L-0.0193298 48.7819L36.7384 -1.26318Z" fill="#5E5C61"/>
<path d="M41.7368 -1.26318L42.0902 -0.781981L5.3325 49.2631L4.97906 48.7819L41.7368 -1.26318Z" fill="#5E5C61"/>
<path d="M46.7352 -1.26318L47.0886 -0.781981L10.3309 49.2631L9.97745 48.7819L46.7352 -1.26318Z" fill="#5E5C61"/>
<path d="M51.7335 -1.26318L52.087 -0.781981L15.3293 49.2631L14.9758 48.7819L51.7335 -1.26318Z" fill="#5E5C61"/>
<path d="M56.7319 -1.26318L57.0854 -0.781981L20.3277 49.2631L19.9742 48.7819L56.7319 -1.26318Z" fill="#5E5C61"/>
<path d="M61.7303 -1.26318L62.0838 -0.781981L25.3261 49.2631L24.9726 48.7819L61.7303 -1.26318Z" fill="#5E5C61"/>
<path d="M66.7287 -1.26318L67.0822 -0.781981L30.3244 49.2631L29.971 48.7819L66.7287 -1.26318Z" fill="#5E5C61"/>
<path d="M71.7271 -1.26318L72.0805 -0.781981L35.3228 49.2631L34.9694 48.7819L71.7271 -1.26318Z" fill="#5E5C61"/>
<path d="M76.7255 -1.26318L77.0789 -0.781981L40.3212 49.2631L39.9678 48.7819L76.7255 -1.26318Z" fill="#5E5C61"/>
<path d="M81.7239 -1.26318L82.0773 -0.781981L45.3196 49.2631L44.9662 48.7819L81.7239 -1.26318Z" fill="#5E5C61"/>
<path d="M86.7223 -1.26318L87.0757 -0.781981L50.318 49.2631L49.9646 48.7819L86.7223 -1.26318Z" fill="#5E5C61"/>
<path d="M91.7207 -1.26318L92.0741 -0.781981L55.3164 49.2631L54.963 48.7819L91.7207 -1.26318Z" fill="#5E5C61"/>
<path d="M96.719 -1.26318L97.0725 -0.781981L60.3148 49.2631L59.9613 48.7819L96.719 -1.26318Z" fill="#5E5C61"/>
<path d="M101.717 -1.26318L102.071 -0.781981L65.3132 49.2631L64.9597 48.7819L101.717 -1.26318Z" fill="#5E5C61"/>
<path d="M106.716 -1.26318L107.069 -0.781981L70.3116 49.2631L69.9581 48.7819L106.716 -1.26318Z" fill="#5E5C61"/>
<path d="M111.714 -1.26318L112.068 -0.781981L75.3099 49.2631L74.9565 48.7819L111.714 -1.26318Z" fill="#5E5C61"/>
<path d="M116.713 -1.26318L117.066 -0.781981L80.3083 49.2631L79.9549 48.7819L116.713 -1.26318Z" fill="#5E5C61"/>
<path d="M121.711 -1.26318L122.064 -0.781981L85.3067 49.2631L84.9533 48.7819L121.711 -1.26318Z" fill="#5E5C61"/>
<path d="M126.709 -1.26318L127.063 -0.781981L90.3051 49.2631L89.9517 48.7819L126.709 -1.26318Z" fill="#5E5C61"/>
<path d="M131.708 -1.26318L132.061 -0.781981L95.3035 49.2631L94.9501 48.7819L131.708 -1.26318Z" fill="#5E5C61"/>
<path d="M136.706 -1.26318L137.06 -0.781981L100.302 49.2631L99.9485 48.7819L136.706 -1.26318Z" fill="#5E5C61"/>
<path d="M141.705 -1.26318L142.058 -0.781981L105.3 49.2631L104.947 48.7819L141.705 -1.26318Z" fill="#5E5C61"/>
<path d="M146.703 -1.26318L147.056 -0.781981L110.299 49.2631L109.945 48.7819L146.703 -1.26318Z" fill="#5E5C61"/>
<path d="M151.701 -1.26318L152.055 -0.781981L115.297 49.2631L114.944 48.7819L151.701 -1.26318Z" fill="#5E5C61"/>
<path d="M156.7 -1.26318L157.053 -0.781981L120.295 49.2631L119.942 48.7819L156.7 -1.26318Z" fill="#5E5C61"/>
<path d="M161.698 -1.26318L162.052 -0.781981L125.294 49.2631L124.94 48.7819L161.698 -1.26318Z" fill="#5E5C61"/>
<path d="M166.696 -1.26318L167.05 -0.781981L130.292 49.2631L129.939 48.7819L166.696 -1.26318Z" fill="#5E5C61"/>
<path d="M171.695 -1.26318L172.048 -0.781981L135.291 49.2631L134.937 48.7819L171.695 -1.26318Z" fill="#5E5C61"/>
<path d="M176.693 -1.26318L177.047 -0.781981L140.289 49.2631L139.936 48.7819L176.693 -1.26318Z" fill="#5E5C61"/>
<path d="M181.692 -1.26318L182.045 -0.781981L145.287 49.2631L144.934 48.7819L181.692 -1.26318Z" fill="#5E5C61"/>
<path d="M186.69 -1.26318L187.043 -0.781981L150.286 49.2631L149.932 48.7819L186.69 -1.26318Z" fill="#5E5C61"/>
<path d="M191.688 -1.26318L192.042 -0.781981L155.284 49.2631L154.931 48.7819L191.688 -1.26318Z" fill="#5E5C61"/>
<path d="M196.687 -1.26318L197.04 -0.781981L160.283 49.2631L159.929 48.7819L196.687 -1.26318Z" fill="#5E5C61"/>
<path d="M201.685 -1.26318L202.039 -0.781981L165.281 49.2631L164.928 48.7819L201.685 -1.26318Z" fill="#5E5C61"/>
<path d="M206.684 -1.26318L207.037 -0.781981L170.279 49.2631L169.926 48.7819L206.684 -1.26318Z" fill="#5E5C61"/>
<path d="M211.682 -1.26318L212.035 -0.781981L175.278 49.2631L174.924 48.7819L211.682 -1.26318Z" fill="#5E5C61"/>
<path d="M216.68 -1.26318L217.034 -0.781981L180.276 49.2631L179.923 48.7819L216.68 -1.26318Z" fill="#5E5C61"/>
<path d="M221.679 -1.26318L222.032 -0.781981L185.275 49.2631L184.921 48.7819L221.679 -1.26318Z" fill="#5E5C61"/>
<path d="M226.677 -1.26318L227.031 -0.781981L190.273 49.2631L189.919 48.7819L226.677 -1.26318Z" fill="#5E5C61"/>
<path d="M231.676 -1.26318L232.029 -0.781981L195.271 49.2631L194.918 48.7819L231.676 -1.26318Z" fill="#5E5C61"/>
<path d="M236.674 -1.26318L237.027 -0.781981L200.27 49.2631L199.916 48.7819L236.674 -1.26318Z" fill="#5E5C61"/>
<path d="M241.672 -1.26318L242.026 -0.781981L205.268 49.2631L204.915 48.7819L241.672 -1.26318Z" fill="#5E5C61"/>
<path d="M246.671 -1.26318L247.024 -0.781981L210.266 49.2631L209.913 48.7819L246.671 -1.26318Z" fill="#5E5C61"/>
<path d="M251.669 -1.26318L252.023 -0.781981L215.265 49.2631L214.911 48.7819L251.669 -1.26318Z" fill="#5E5C61"/>
<path d="M256.668 -1.26318L257.021 -0.781981L220.263 49.2631L219.91 48.7819L256.668 -1.26318Z" fill="#5E5C61"/>
<path d="M261.666 -1.26318L262.019 -0.781981L225.262 49.2631L224.908 48.7819L261.666 -1.26318Z" fill="#5E5C61"/>
<path d="M266.664 -1.26318L267.018 -0.781981L230.26 49.2631L229.907 48.7819L266.664 -1.26318Z" fill="#5E5C61"/>
<path d="M271.663 -1.26318L272.016 -0.781981L235.258 49.2631L234.905 48.7819L271.663 -1.26318Z" fill="#5E5C61"/>
<path d="M276.661 -1.26318L277.014 -0.781981L240.257 49.2631L239.903 48.7819L276.661 -1.26318Z" fill="#5E5C61"/>
<path d="M281.659 -1.26318L282.013 -0.781981L245.255 49.2631L244.902 48.7819L281.659 -1.26318Z" fill="#5E5C61"/>
<path d="M286.658 -1.26318L287.011 -0.781981L250.254 49.2631L249.9 48.7819L286.658 -1.26318Z" fill="#5E5C61"/>
<path d="M291.656 -1.26318L292.01 -0.781981L255.252 49.2631L254.899 48.7819L291.656 -1.26318Z" fill="#5E5C61"/>
<path d="M296.655 -1.26318L297.008 -0.781981L260.25 49.2631L259.897 48.7819L296.655 -1.26318Z" fill="#5E5C61"/>
<path d="M301.653 -1.26318L302.006 -0.781981L265.249 49.2631L264.895 48.7819L301.653 -1.26318Z" fill="#5E5C61"/>
<path d="M306.651 -1.26318L307.005 -0.781981L270.247 49.2631L269.894 48.7819L306.651 -1.26318Z" fill="#5E5C61"/>
<path d="M311.65 -1.26318L312.003 -0.781981L275.246 49.2631L274.892 48.7819L311.65 -1.26318Z" fill="#5E5C61"/>
<path d="M316.648 -1.26318L317.002 -0.781981L280.244 49.2631L279.89 48.7819L316.648 -1.26318Z" fill="#5E5C61"/>
<path d="M321.647 -1.26318L322 -0.781981L285.242 49.2631L284.889 48.7819L321.647 -1.26318Z" fill="#5E5C61"/>
</g>
<rect x="0.25" y="0.25" width="247.5" height="47.5" stroke="#5E5C61" stroke-width="0.5"/>
<defs>
<clipPath id="clip0_66_955">
<rect width="248" height="48" fill="white"/>
</clipPath>
</defs>
</svg>
