<svg width="960" height="14" viewBox="0 0 960 14" fill="none" xmlns="http://www.w3.org/2000/svg">
<path fill-rule="evenodd" clip-rule="evenodd" d="M31.824 14L19.5913 0.482759H0V0H960V0.482759H940.409L928.176 14H31.824ZM625.16 0.482759L636.955 13.5172H629.568L623.069 6.75862H574.197L579.876 0.482759H625.16ZM637.65 13.5172L625.854 0.482759H633.242L639.74 7.24138H688.612L682.933 13.5172H637.65ZM322.35 13.5172L334.146 0.482759H326.758L320.26 7.24138H271.388L277.067 13.5172H322.35ZM334.84 0.482759L323.045 13.5172H330.432L336.931 6.75862H385.803L380.124 0.482759H334.84ZM27.6232 0.482759H20.2353L32.0311 13.5172H77.3143L82.9937 7.24138H34.1218L27.6232 0.482759ZM77.9583 13.5172H85.3462L91.8448 6.75862H140.717L135.037 0.482759H89.7541L77.9583 13.5172ZM92.0435 7.24138L86.009 13.5172H146.833L141.154 7.24138H92.0435ZM147.477 13.5172H206.904L218.7 0.482759H211.312L204.814 7.24138H149.568L143.069 0.482759H135.681L147.477 13.5172ZM213.228 7.24138L207.548 13.5172H268.372L262.338 7.24138H213.228ZM269.035 13.5172H276.423L264.627 0.482759H219.344L213.665 6.75862H262.537L269.035 13.5172ZM320.061 6.75862L326.095 0.482759H265.271L270.951 6.75862H320.061ZM204.615 6.75862L210.649 0.482759H143.732L149.766 6.75862H204.615ZM83.4306 6.75862L89.1101 0.482759H28.286L34.3205 6.75862H83.4306ZM579.232 0.482759H571.844L565.346 7.24138H516.474L522.153 13.5172H567.437L579.232 0.482759ZM565.147 6.75862L571.182 0.482759H510.358L516.037 6.75862H565.147ZM509.714 0.482759H450.286L438.491 13.5172H445.879L452.377 6.75862H507.623L514.121 13.5172H521.509L509.714 0.482759ZM443.963 6.75862L449.642 0.482759H388.818L394.853 6.75862H443.963ZM388.155 0.482759H380.768L392.563 13.5172H437.847L443.526 7.24138H394.654L388.155 0.482759ZM337.13 7.24138L331.095 13.5172H391.919L386.24 7.24138H337.13ZM452.576 7.24138L446.541 13.5172H513.459L507.424 7.24138H452.576ZM573.76 7.24138L568.081 13.5172H628.905L622.87 7.24138H573.76ZM939.765 0.482759H932.377L925.878 7.24138H877.006L882.686 13.5172H927.969L939.765 0.482759ZM874.654 13.5172H882.042L870.246 0.482759H824.963L819.283 6.75862H868.155L874.654 13.5172ZM873.991 13.5172L867.956 7.24138H818.846L813.167 13.5172H873.991ZM753.096 13.5172H812.523L824.319 0.482759H816.931L810.432 7.24138H755.186L748.688 0.482759H741.3L753.096 13.5172ZM752.452 13.5172L746.772 7.24138H697.662L691.628 13.5172H752.452ZM683.577 13.5172H690.965L697.463 6.75862H746.335L740.656 0.482759H695.373L683.577 13.5172ZM633.905 0.482759L639.939 6.75862H689.049L694.729 0.482759H633.905ZM749.351 0.482759L755.385 6.75862H810.233L816.268 0.482759H749.351ZM870.89 0.482759L876.569 6.75862H925.68L931.714 0.482759H870.89Z" fill="#5E5C61"/>
</svg>
