<svg width="48" height="49" viewBox="0 0 48 49" fill="none" xmlns="http://www.w3.org/2000/svg">
<g clip-path="url(#clip0_18_362)">
<path d="M-55.2423 -0.421204L-54.8889 0.0599994L-91.6466 50.1051L-92 49.6239L-55.2423 -0.421204Z" fill="#5E5C61"/>
<path d="M-50.2439 -0.421204L-49.8905 0.0599994L-86.6482 50.1051L-87.0016 49.6239L-50.2439 -0.421204Z" fill="#5E5C61"/>
<path d="M-45.2455 -0.421204L-44.8921 0.0599994L-81.6498 50.1051L-82.0032 49.6239L-45.2455 -0.421204Z" fill="#5E5C61"/>
<path d="M-40.2471 -0.421204L-39.8937 0.0599994L-76.6514 50.1051L-77.0048 49.6239L-40.2471 -0.421204Z" fill="#5E5C61"/>
<path d="M-35.2487 -0.421204L-34.8953 0.0599994L-71.653 50.1051L-72.0064 49.6239L-35.2487 -0.421204Z" fill="#5E5C61"/>
<path d="M-30.2504 -0.421204L-29.8969 0.0599994L-66.6546 50.1051L-67.0081 49.6239L-30.2504 -0.421204Z" fill="#5E5C61"/>
<path d="M-25.252 -0.421204L-24.8985 0.0599994L-61.6562 50.1051L-62.0097 49.6239L-25.252 -0.421204Z" fill="#5E5C61"/>
<path d="M-20.2536 -0.421204L-19.9001 0.0599994L-56.6578 50.1051L-57.0113 49.6239L-20.2536 -0.421204Z" fill="#5E5C61"/>
<path d="M-15.2552 -0.421204L-14.9017 0.0599994L-51.6594 50.1051L-52.0129 49.6239L-15.2552 -0.421204Z" fill="#5E5C61"/>
<path d="M-10.2568 -0.421204L-9.90335 0.0599994L-46.6611 50.1051L-47.0145 49.6239L-10.2568 -0.421204Z" fill="#5E5C61"/>
<path d="M-5.2584 -0.421204L-4.90496 0.0599994L-41.6627 50.1051L-42.0161 49.6239L-5.2584 -0.421204Z" fill="#5E5C61"/>
<path d="M-0.26001 -0.421204L0.0934296 0.0599994L-36.6643 50.1051L-37.0177 49.6239L-0.26001 -0.421204Z" fill="#5E5C61"/>
<path d="M4.73838 -0.421204L5.09182 0.0599994L-31.6659 50.1051L-32.0193 49.6239L4.73838 -0.421204Z" fill="#5E5C61"/>
<path d="M9.73677 -0.421204L10.0902 0.0599994L-26.6675 50.1051L-27.0209 49.6239L9.73677 -0.421204Z" fill="#5E5C61"/>
<path d="M14.7352 -0.421204L15.0886 0.0599994L-21.6691 50.1051L-22.0226 49.6239L14.7352 -0.421204Z" fill="#5E5C61"/>
<path d="M19.7335 -0.421204L20.087 0.0599994L-16.6707 50.1051L-17.0242 49.6239L19.7335 -0.421204Z" fill="#5E5C61"/>
<path d="M24.7319 -0.421204L25.0854 0.0599994L-11.6723 50.1051L-12.0258 49.6239L24.7319 -0.421204Z" fill="#5E5C61"/>
<path d="M29.7303 -0.421204L30.0838 0.0599994L-6.67394 50.1051L-7.02738 49.6239L29.7303 -0.421204Z" fill="#5E5C61"/>
<path d="M34.7287 -0.421204L35.0822 0.0599994L-1.67555 50.1051L-2.02899 49.6239L34.7287 -0.421204Z" fill="#5E5C61"/>
<path d="M39.7271 -0.421204L40.0805 0.0599994L3.32284 50.1051L2.96939 49.6239L39.7271 -0.421204Z" fill="#5E5C61"/>
<path d="M44.7255 -0.421204L45.0789 0.0599994L8.32122 50.1051L7.96778 49.6239L44.7255 -0.421204Z" fill="#5E5C61"/>
<path d="M49.7239 -0.421204L50.0773 0.0599994L13.3196 50.1051L12.9662 49.6239L49.7239 -0.421204Z" fill="#5E5C61"/>
<path d="M54.7223 -0.421204L55.0757 0.0599994L18.318 50.1051L17.9646 49.6239L54.7223 -0.421204Z" fill="#5E5C61"/>
<path d="M59.7207 -0.421204L60.0741 0.0599994L23.3164 50.1051L22.963 49.6239L59.7207 -0.421204Z" fill="#5E5C61"/>
<path d="M64.719 -0.421204L65.0725 0.0599994L28.3148 50.1051L27.9613 49.6239L64.719 -0.421204Z" fill="#5E5C61"/>
<path d="M69.7174 -0.421204L70.0709 0.0599994L33.3132 50.1051L32.9597 49.6239L69.7174 -0.421204Z" fill="#5E5C61"/>
<path d="M74.7158 -0.421204L75.0693 0.0599994L38.3116 50.1051L37.9581 49.6239L74.7158 -0.421204Z" fill="#5E5C61"/>
<path d="M79.7142 -0.421204L80.0677 0.0599994L43.3099 50.1051L42.9565 49.6239L79.7142 -0.421204Z" fill="#5E5C61"/>
<path d="M84.7126 -0.421204L85.066 0.0599994L48.3083 50.1051L47.9549 49.6239L84.7126 -0.421204Z" fill="#5E5C61"/>
<path d="M89.711 -0.421204L90.0644 0.0599994L53.3067 50.1051L52.9533 49.6239L89.711 -0.421204Z" fill="#5E5C61"/>
<path d="M94.7094 -0.421204L95.0628 0.0599994L58.3051 50.1051L57.9517 49.6239L94.7094 -0.421204Z" fill="#5E5C61"/>
<path d="M99.7078 -0.421204L100.061 0.0599994L63.3035 50.1051L62.9501 49.6239L99.7078 -0.421204Z" fill="#5E5C61"/>
<path d="M104.706 -0.421204L105.06 0.0599994L68.3019 50.1051L67.9485 49.6239L104.706 -0.421204Z" fill="#5E5C61"/>
<path d="M109.705 -0.421204L110.058 0.0599994L73.3003 50.1051L72.9468 49.6239L109.705 -0.421204Z" fill="#5E5C61"/>
<path d="M114.703 -0.421204L115.056 0.0599994L78.2987 50.1051L77.9452 49.6239L114.703 -0.421204Z" fill="#5E5C61"/>
<path d="M119.701 -0.421204L120.055 0.0599994L83.2971 50.1051L82.9436 49.6239L119.701 -0.421204Z" fill="#5E5C61"/>
<path d="M124.7 -0.421204L125.053 0.0599994L88.2954 50.1051L87.942 49.6239L124.7 -0.421204Z" fill="#5E5C61"/>
<path d="M129.698 -0.421204L130.052 0.0599994L93.2938 50.1051L92.9404 49.6239L129.698 -0.421204Z" fill="#5E5C61"/>
<path d="M134.696 -0.421204L135.05 0.0599994L98.2922 50.1051L97.9388 49.6239L134.696 -0.421204Z" fill="#5E5C61"/>
<path d="M139.695 -0.421204L140.048 0.0599994L103.291 50.1051L102.937 49.6239L139.695 -0.421204Z" fill="#5E5C61"/>
<path d="M144.693 -0.421204L145.047 0.0599994L108.289 50.1051L107.936 49.6239L144.693 -0.421204Z" fill="#5E5C61"/>
<path d="M149.692 -0.421204L150.045 0.0599994L113.287 50.1051L112.934 49.6239L149.692 -0.421204Z" fill="#5E5C61"/>
<path d="M154.69 -0.421204L155.043 0.0599994L118.286 50.1051L117.932 49.6239L154.69 -0.421204Z" fill="#5E5C61"/>
<path d="M159.688 -0.421204L160.042 0.0599994L123.284 50.1051L122.931 49.6239L159.688 -0.421204Z" fill="#5E5C61"/>
<path d="M164.687 -0.421204L165.04 0.0599994L128.283 50.1051L127.929 49.6239L164.687 -0.421204Z" fill="#5E5C61"/>
<path d="M169.685 -0.421204L170.039 0.0599994L133.281 50.1051L132.928 49.6239L169.685 -0.421204Z" fill="#5E5C61"/>
<path d="M174.684 -0.421204L175.037 0.0599994L138.279 50.1051L137.926 49.6239L174.684 -0.421204Z" fill="#5E5C61"/>
<path d="M179.682 -0.421204L180.035 0.0599994L143.278 50.1051L142.924 49.6239L179.682 -0.421204Z" fill="#5E5C61"/>
<path d="M184.68 -0.421204L185.034 0.0599994L148.276 50.1051L147.923 49.6239L184.68 -0.421204Z" fill="#5E5C61"/>
<path d="M189.679 -0.421204L190.032 0.0599994L153.275 50.1051L152.921 49.6239L189.679 -0.421204Z" fill="#5E5C61"/>
<path d="M194.677 -0.421204L195.031 0.0599994L158.273 50.1051L157.919 49.6239L194.677 -0.421204Z" fill="#5E5C61"/>
<path d="M199.676 -0.421204L200.029 0.0599994L163.271 50.1051L162.918 49.6239L199.676 -0.421204Z" fill="#5E5C61"/>
<path d="M204.674 -0.421204L205.027 0.0599994L168.27 50.1051L167.916 49.6239L204.674 -0.421204Z" fill="#5E5C61"/>
<path d="M209.672 -0.421204L210.026 0.0599994L173.268 50.1051L172.915 49.6239L209.672 -0.421204Z" fill="#5E5C61"/>
<path d="M214.671 -0.421204L215.024 0.0599994L178.266 50.1051L177.913 49.6239L214.671 -0.421204Z" fill="#5E5C61"/>
<path d="M219.669 -0.421204L220.023 0.0599994L183.265 50.1051L182.911 49.6239L219.669 -0.421204Z" fill="#5E5C61"/>
<path d="M224.668 -0.421204L225.021 0.0599994L188.263 50.1051L187.91 49.6239L224.668 -0.421204Z" fill="#5E5C61"/>
<path d="M229.666 -0.421204L230.019 0.0599994L193.262 50.1051L192.908 49.6239L229.666 -0.421204Z" fill="#5E5C61"/>
<path d="M234.664 -0.421204L235.018 0.0599994L198.26 50.1051L197.907 49.6239L234.664 -0.421204Z" fill="#5E5C61"/>
<path d="M239.663 -0.421204L240.016 0.0599994L203.258 50.1051L202.905 49.6239L239.663 -0.421204Z" fill="#5E5C61"/>
<path d="M244.661 -0.421204L245.014 0.0599994L208.257 50.1051L207.903 49.6239L244.661 -0.421204Z" fill="#5E5C61"/>
<path d="M249.659 -0.421204L250.013 0.0599994L213.255 50.1051L212.902 49.6239L249.659 -0.421204Z" fill="#5E5C61"/>
<path d="M254.658 -0.421204L255.011 0.0599994L218.254 50.1051L217.9 49.6239L254.658 -0.421204Z" fill="#5E5C61"/>
<path d="M259.656 -0.421204L260.01 0.0599994L223.252 50.1051L222.899 49.6239L259.656 -0.421204Z" fill="#5E5C61"/>
<path d="M264.655 -0.421204L265.008 0.0599994L228.25 50.1051L227.897 49.6239L264.655 -0.421204Z" fill="#5E5C61"/>
<path d="M269.653 -0.421204L270.006 0.0599994L233.249 50.1051L232.895 49.6239L269.653 -0.421204Z" fill="#5E5C61"/>
<path d="M274.651 -0.421204L275.005 0.0599994L238.247 50.1051L237.894 49.6239L274.651 -0.421204Z" fill="#5E5C61"/>
<path d="M279.65 -0.421204L280.003 0.0599994L243.246 50.1051L242.892 49.6239L279.65 -0.421204Z" fill="#5E5C61"/>
<path d="M284.648 -0.421204L285.002 0.0599994L248.244 50.1051L247.89 49.6239L284.648 -0.421204Z" fill="#5E5C61"/>
<path d="M289.647 -0.421204L290 0.0599994L253.242 50.1051L252.889 49.6239L289.647 -0.421204Z" fill="#5E5C61"/>
<path d="M36 26.6826V35.5788H30.8341V27.225C30.8341 25.1637 30.0807 23.7533 28.2511 23.7533C26.852 23.7533 25.991 24.7297 25.6682 25.5977C25.5605 25.9231 25.4529 26.3571 25.4529 26.8996V35.5788H20.287C20.287 35.5788 20.3946 21.475 20.287 20.0646H25.4529V22.2345C26.0987 21.1496 27.3901 19.6307 30.0807 19.6307C33.417 19.6307 36 21.909 36 26.6826ZM14.9058 12.5788C13.1839 12.5788 12 13.7722 12 15.2911C12 16.8099 13.0762 18.0033 14.7982 18.0033C16.6278 18.0033 17.704 16.8099 17.704 15.2911C17.8117 13.6637 16.7354 12.5788 14.9058 12.5788ZM12.3229 35.5788H17.4888V20.0646H12.3229V35.5788Z" fill="white"/>
</g>
<rect x="0.25" y="0.828796" width="47.5" height="47.5" stroke="#5E5C61" stroke-width="0.5"/>
<defs>
<clipPath id="clip0_18_362">
<rect y="0.578796" width="48" height="48" fill="white"/>
</clipPath>
</defs>
</svg>
