<svg width="530" height="50" viewBox="0 0 530 50" fill="none" xmlns="http://www.w3.org/2000/svg">
<g clip-path="url(#clip0_66_965)">
<path d="M-64.2423 0L-63.8889 0.481203L-100.647 50.5263L-101 50.0451L-64.2423 0Z" fill="#5E5C61"/>
<path d="M-59.2439 0L-58.8905 0.481203L-95.6482 50.5263L-96.0016 50.0451L-59.2439 0Z" fill="#5E5C61"/>
<path d="M-54.2455 0L-53.8921 0.481203L-90.6498 50.5263L-91.0032 50.0451L-54.2455 0Z" fill="#5E5C61"/>
<path d="M-49.2471 0L-48.8937 0.481203L-85.6514 50.5263L-86.0048 50.0451L-49.2471 0Z" fill="#5E5C61"/>
<path d="M-44.2487 0L-43.8953 0.481203L-80.653 50.5263L-81.0064 50.0451L-44.2487 0Z" fill="#5E5C61"/>
<path d="M-39.2504 0L-38.8969 0.481203L-75.6546 50.5263L-76.0081 50.0451L-39.2504 0Z" fill="#5E5C61"/>
<path d="M-34.252 0L-33.8985 0.481203L-70.6562 50.5263L-71.0097 50.0451L-34.252 0Z" fill="#5E5C61"/>
<path d="M-29.2536 0L-28.9001 0.481203L-65.6578 50.5263L-66.0113 50.0451L-29.2536 0Z" fill="#5E5C61"/>
<path d="M-24.2552 0L-23.9017 0.481203L-60.6594 50.5263L-61.0129 50.0451L-24.2552 0Z" fill="#5E5C61"/>
<path d="M-19.2568 0L-18.9034 0.481203L-55.6611 50.5263L-56.0145 50.0451L-19.2568 0Z" fill="#5E5C61"/>
<path d="M-14.2584 0L-13.905 0.481203L-50.6627 50.5263L-51.0161 50.0451L-14.2584 0Z" fill="#5E5C61"/>
<path d="M-9.26001 0L-8.90657 0.481203L-45.6643 50.5263L-46.0177 50.0451L-9.26001 0Z" fill="#5E5C61"/>
<path d="M-4.26162 0L-3.90818 0.481203L-40.6659 50.5263L-41.0193 50.0451L-4.26162 0Z" fill="#5E5C61"/>
<path d="M0.736771 0L1.09021 0.481203L-35.6675 50.5263L-36.0209 50.0451L0.736771 0Z" fill="#5E5C61"/>
<path d="M5.73515 0L6.0886 0.481203L-30.6691 50.5263L-31.0226 50.0451L5.73515 0Z" fill="#5E5C61"/>
<path d="M10.7335 0L11.087 0.481203L-25.6707 50.5263L-26.0242 50.0451L10.7335 0Z" fill="#5E5C61"/>
<path d="M15.7319 0L16.0854 0.481203L-20.6723 50.5263L-21.0258 50.0451L15.7319 0Z" fill="#5E5C61"/>
<path d="M20.7303 0L21.0838 0.481203L-15.6739 50.5263L-16.0274 50.0451L20.7303 0Z" fill="#5E5C61"/>
<path d="M25.7287 0L26.0822 0.481203L-10.6756 50.5263L-11.029 50.0451L25.7287 0Z" fill="#5E5C61"/>
<path d="M30.7271 0L31.0805 0.481203L-5.67716 50.5263L-6.03061 50.0451L30.7271 0Z" fill="#5E5C61"/>
<path d="M35.7255 0L36.0789 0.481203L-0.67878 50.5263L-1.03222 50.0451L35.7255 0Z" fill="#5E5C61"/>
<path d="M40.7239 0L41.0773 0.481203L4.31961 50.5263L3.96617 50.0451L40.7239 0Z" fill="#5E5C61"/>
<path d="M45.7223 0L46.0757 0.481203L9.318 50.5263L8.96456 50.0451L45.7223 0Z" fill="#5E5C61"/>
<path d="M50.7207 0L51.0741 0.481203L14.3164 50.5263L13.963 50.0451L50.7207 0Z" fill="#5E5C61"/>
<path d="M55.719 0L56.0725 0.481203L19.3148 50.5263L18.9613 50.0451L55.719 0Z" fill="#5E5C61"/>
<path d="M60.7174 0L61.0709 0.481203L24.3132 50.5263L23.9597 50.0451L60.7174 0Z" fill="#5E5C61"/>
<path d="M65.7158 0L66.0693 0.481203L29.3116 50.5263L28.9581 50.0451L65.7158 0Z" fill="#5E5C61"/>
<path d="M70.7142 0L71.0677 0.481203L34.3099 50.5263L33.9565 50.0451L70.7142 0Z" fill="#5E5C61"/>
<path d="M75.7126 0L76.066 0.481203L39.3083 50.5263L38.9549 50.0451L75.7126 0Z" fill="#5E5C61"/>
<path d="M80.711 0L81.0644 0.481203L44.3067 50.5263L43.9533 50.0451L80.711 0Z" fill="#5E5C61"/>
<path d="M85.7094 0L86.0628 0.481203L49.3051 50.5263L48.9517 50.0451L85.7094 0Z" fill="#5E5C61"/>
<path d="M90.7078 0L91.0612 0.481203L54.3035 50.5263L53.9501 50.0451L90.7078 0Z" fill="#5E5C61"/>
<path d="M95.7062 0L96.0596 0.481203L59.3019 50.5263L58.9485 50.0451L95.7062 0Z" fill="#5E5C61"/>
<path d="M100.705 0L101.058 0.481203L64.3003 50.5263L63.9468 50.0451L100.705 0Z" fill="#5E5C61"/>
<path d="M105.703 0L106.056 0.481203L69.2987 50.5263L68.9452 50.0451L105.703 0Z" fill="#5E5C61"/>
<path d="M110.701 0L111.055 0.481203L74.2971 50.5263L73.9436 50.0451L110.701 0Z" fill="#5E5C61"/>
<path d="M115.7 0L116.053 0.481203L79.2954 50.5263L78.942 50.0451L115.7 0Z" fill="#5E5C61"/>
<path d="M120.698 0L121.052 0.481203L84.2938 50.5263L83.9404 50.0451L120.698 0Z" fill="#5E5C61"/>
<path d="M125.696 0L126.05 0.481203L89.2922 50.5263L88.9388 50.0451L125.696 0Z" fill="#5E5C61"/>
<path d="M130.695 0L131.048 0.481203L94.2906 50.5263L93.9372 50.0451L130.695 0Z" fill="#5E5C61"/>
<path d="M135.693 0L136.047 0.481203L99.289 50.5263L98.9356 50.0451L135.693 0Z" fill="#5E5C61"/>
<path d="M140.692 0L141.045 0.481203L104.287 50.5263L103.934 50.0451L140.692 0Z" fill="#5E5C61"/>
<path d="M145.69 0L146.043 0.481203L109.286 50.5263L108.932 50.0451L145.69 0Z" fill="#5E5C61"/>
<path d="M150.688 0L151.042 0.481203L114.284 50.5263L113.931 50.0451L150.688 0Z" fill="#5E5C61"/>
<path d="M155.687 0L156.04 0.481203L119.283 50.5263L118.929 50.0451L155.687 0Z" fill="#5E5C61"/>
<path d="M160.685 0L161.039 0.481203L124.281 50.5263L123.928 50.0451L160.685 0Z" fill="#5E5C61"/>
<path d="M165.684 0L166.037 0.481203L129.279 50.5263L128.926 50.0451L165.684 0Z" fill="#5E5C61"/>
<path d="M170.682 0L171.035 0.481203L134.278 50.5263L133.924 50.0451L170.682 0Z" fill="#5E5C61"/>
<path d="M175.68 0L176.034 0.481203L139.276 50.5263L138.923 50.0451L175.68 0Z" fill="#5E5C61"/>
<path d="M180.679 0L181.032 0.481203L144.275 50.5263L143.921 50.0451L180.679 0Z" fill="#5E5C61"/>
<path d="M185.677 0L186.031 0.481203L149.273 50.5263L148.919 50.0451L185.677 0Z" fill="#5E5C61"/>
<path d="M190.676 0L191.029 0.481203L154.271 50.5263L153.918 50.0451L190.676 0Z" fill="#5E5C61"/>
<path d="M195.674 0L196.027 0.481203L159.27 50.5263L158.916 50.0451L195.674 0Z" fill="#5E5C61"/>
<path d="M200.672 0L201.026 0.481203L164.268 50.5263L163.915 50.0451L200.672 0Z" fill="#5E5C61"/>
<path d="M205.671 0L206.024 0.481203L169.266 50.5263L168.913 50.0451L205.671 0Z" fill="#5E5C61"/>
<path d="M210.669 0L211.023 0.481203L174.265 50.5263L173.911 50.0451L210.669 0Z" fill="#5E5C61"/>
<path d="M215.668 0L216.021 0.481203L179.263 50.5263L178.91 50.0451L215.668 0Z" fill="#5E5C61"/>
<path d="M220.666 0L221.019 0.481203L184.262 50.5263L183.908 50.0451L220.666 0Z" fill="#5E5C61"/>
<path d="M225.664 0L226.018 0.481203L189.26 50.5263L188.907 50.0451L225.664 0Z" fill="#5E5C61"/>
<path d="M230.663 0L231.016 0.481203L194.258 50.5263L193.905 50.0451L230.663 0Z" fill="#5E5C61"/>
<path d="M235.661 0L236.014 0.481203L199.257 50.5263L198.903 50.0451L235.661 0Z" fill="#5E5C61"/>
<path d="M240.659 0L241.013 0.481203L204.255 50.5263L203.902 50.0451L240.659 0Z" fill="#5E5C61"/>
<path d="M245.658 0L246.011 0.481203L209.254 50.5263L208.9 50.0451L245.658 0Z" fill="#5E5C61"/>
<path d="M250.656 0L251.01 0.481203L214.252 50.5263L213.899 50.0451L250.656 0Z" fill="#5E5C61"/>
<path d="M255.655 0L256.008 0.481203L219.25 50.5263L218.897 50.0451L255.655 0Z" fill="#5E5C61"/>
<path d="M260.653 0L261.006 0.481203L224.249 50.5263L223.895 50.0451L260.653 0Z" fill="#5E5C61"/>
<path d="M265.651 0L266.005 0.481203L229.247 50.5263L228.894 50.0451L265.651 0Z" fill="#5E5C61"/>
<path d="M270.65 0L271.003 0.481203L234.246 50.5263L233.892 50.0451L270.65 0Z" fill="#5E5C61"/>
<path d="M275.648 0L276.002 0.481203L239.244 50.5263L238.89 50.0451L275.648 0Z" fill="#5E5C61"/>
<path d="M280.647 0L281 0.481203L244.242 50.5263L243.889 50.0451L280.647 0Z" fill="#5E5C61"/>
<path d="M285.758 0L286.111 0.481203L249.353 50.5263L249 50.0451L285.758 0Z" fill="#5E5C61"/>
<path d="M290.756 0L291.11 0.481203L254.352 50.5263L253.998 50.0451L290.756 0Z" fill="#5E5C61"/>
<path d="M295.754 0L296.108 0.481203L259.35 50.5263L258.997 50.0451L295.754 0Z" fill="#5E5C61"/>
<path d="M300.753 0L301.106 0.481203L264.349 50.5263L263.995 50.0451L300.753 0Z" fill="#5E5C61"/>
<path d="M305.751 0L306.105 0.481203L269.347 50.5263L268.994 50.0451L305.751 0Z" fill="#5E5C61"/>
<path d="M310.75 0L311.103 0.481203L274.345 50.5263L273.992 50.0451L310.75 0Z" fill="#5E5C61"/>
<path d="M315.748 0L316.102 0.481203L279.344 50.5263L278.99 50.0451L315.748 0Z" fill="#5E5C61"/>
<path d="M320.746 0L321.1 0.481203L284.342 50.5263L283.989 50.0451L320.746 0Z" fill="#5E5C61"/>
<path d="M325.745 0L326.098 0.481203L289.341 50.5263L288.987 50.0451L325.745 0Z" fill="#5E5C61"/>
<path d="M330.743 0L331.097 0.481203L294.339 50.5263L293.986 50.0451L330.743 0Z" fill="#5E5C61"/>
<path d="M335.742 0L336.095 0.481203L299.337 50.5263L298.984 50.0451L335.742 0Z" fill="#5E5C61"/>
<path d="M340.74 0L341.093 0.481203L304.336 50.5263L303.982 50.0451L340.74 0Z" fill="#5E5C61"/>
<path d="M345.738 0L346.092 0.481203L309.334 50.5263L308.981 50.0451L345.738 0Z" fill="#5E5C61"/>
<path d="M350.737 0L351.09 0.481203L314.332 50.5263L313.979 50.0451L350.737 0Z" fill="#5E5C61"/>
<path d="M355.735 0L356.089 0.481203L319.331 50.5263L318.977 50.0451L355.735 0Z" fill="#5E5C61"/>
<path d="M360.734 0L361.087 0.481203L324.329 50.5263L323.976 50.0451L360.734 0Z" fill="#5E5C61"/>
<path d="M365.732 0L366.085 0.481203L329.328 50.5263L328.974 50.0451L365.732 0Z" fill="#5E5C61"/>
<path d="M370.73 0L371.084 0.481203L334.326 50.5263L333.973 50.0451L370.73 0Z" fill="#5E5C61"/>
<path d="M375.729 0L376.082 0.481203L339.324 50.5263L338.971 50.0451L375.729 0Z" fill="#5E5C61"/>
<path d="M380.727 0L381.081 0.481203L344.323 50.5263L343.969 50.0451L380.727 0Z" fill="#5E5C61"/>
<path d="M385.725 0L386.079 0.481203L349.321 50.5263L348.968 50.0451L385.725 0Z" fill="#5E5C61"/>
<path d="M390.724 0L391.077 0.481203L354.32 50.5263L353.966 50.0451L390.724 0Z" fill="#5E5C61"/>
<path d="M395.722 0L396.076 0.481203L359.318 50.5263L358.965 50.0451L395.722 0Z" fill="#5E5C61"/>
<path d="M400.721 0L401.074 0.481203L364.316 50.5263L363.963 50.0451L400.721 0Z" fill="#5E5C61"/>
<path d="M405.719 0L406.073 0.481203L369.315 50.5263L368.961 50.0451L405.719 0Z" fill="#5E5C61"/>
<path d="M410.717 0L411.071 0.481203L374.313 50.5263L373.96 50.0451L410.717 0Z" fill="#5E5C61"/>
<path d="M415.716 0L416.069 0.481203L379.312 50.5263L378.958 50.0451L415.716 0Z" fill="#5E5C61"/>
<path d="M420.714 0L421.068 0.481203L384.31 50.5263L383.957 50.0451L420.714 0Z" fill="#5E5C61"/>
<path d="M425.713 0L426.066 0.481203L389.308 50.5263L388.955 50.0451L425.713 0Z" fill="#5E5C61"/>
<path d="M430.711 0L431.064 0.481203L394.307 50.5263L393.953 50.0451L430.711 0Z" fill="#5E5C61"/>
<path d="M435.709 0L436.063 0.481203L399.305 50.5263L398.952 50.0451L435.709 0Z" fill="#5E5C61"/>
<path d="M440.708 0L441.061 0.481203L404.303 50.5263L403.95 50.0451L440.708 0Z" fill="#5E5C61"/>
<path d="M445.706 0L446.06 0.481203L409.302 50.5263L408.948 50.0451L445.706 0Z" fill="#5E5C61"/>
<path d="M450.705 0L451.058 0.481203L414.3 50.5263L413.947 50.0451L450.705 0Z" fill="#5E5C61"/>
<path d="M455.703 0L456.056 0.481203L419.299 50.5263L418.945 50.0451L455.703 0Z" fill="#5E5C61"/>
<path d="M460.701 0L461.055 0.481203L424.297 50.5263L423.944 50.0451L460.701 0Z" fill="#5E5C61"/>
<path d="M465.7 0L466.053 0.481203L429.295 50.5263L428.942 50.0451L465.7 0Z" fill="#5E5C61"/>
<path d="M470.698 0L471.052 0.481203L434.294 50.5263L433.94 50.0451L470.698 0Z" fill="#5E5C61"/>
<path d="M475.696 0L476.05 0.481203L439.292 50.5263L438.939 50.0451L475.696 0Z" fill="#5E5C61"/>
<path d="M480.695 0L481.048 0.481203L444.291 50.5263L443.937 50.0451L480.695 0Z" fill="#5E5C61"/>
<path d="M485.693 0L486.047 0.481203L449.289 50.5263L448.936 50.0451L485.693 0Z" fill="#5E5C61"/>
<path d="M490.692 0L491.045 0.481203L454.287 50.5263L453.934 50.0451L490.692 0Z" fill="#5E5C61"/>
<path d="M495.69 0L496.043 0.481203L459.286 50.5263L458.932 50.0451L495.69 0Z" fill="#5E5C61"/>
<path d="M500.688 0L501.042 0.481203L464.284 50.5263L463.931 50.0451L500.688 0Z" fill="#5E5C61"/>
<path d="M505.687 0L506.04 0.481203L469.283 50.5263L468.929 50.0451L505.687 0Z" fill="#5E5C61"/>
<path d="M510.685 0L511.039 0.481203L474.281 50.5263L473.927 50.0451L510.685 0Z" fill="#5E5C61"/>
<path d="M515.684 0L516.037 0.481203L479.279 50.5263L478.926 50.0451L515.684 0Z" fill="#5E5C61"/>
<path d="M520.682 0L521.035 0.481203L484.278 50.5263L483.924 50.0451L520.682 0Z" fill="#5E5C61"/>
<path d="M525.68 0L526.034 0.481203L489.276 50.5263L488.923 50.0451L525.68 0Z" fill="#5E5C61"/>
<path d="M530.679 0L531.032 0.481203L494.275 50.5263L493.921 50.0451L530.679 0Z" fill="#5E5C61"/>
<path d="M535.677 0L536.031 0.481203L499.273 50.5263L498.919 50.0451L535.677 0Z" fill="#5E5C61"/>
<path d="M540.676 0L541.029 0.481203L504.271 50.5263L503.918 50.0451L540.676 0Z" fill="#5E5C61"/>
<path d="M545.674 0L546.027 0.481203L509.27 50.5263L508.916 50.0451L545.674 0Z" fill="#5E5C61"/>
<path d="M550.672 0L551.026 0.481203L514.268 50.5263L513.915 50.0451L550.672 0Z" fill="#5E5C61"/>
<path d="M555.671 0L556.024 0.481203L519.266 50.5263L518.913 50.0451L555.671 0Z" fill="#5E5C61"/>
<path d="M560.669 0L561.023 0.481203L524.265 50.5263L523.911 50.0451L560.669 0Z" fill="#5E5C61"/>
<path d="M565.667 0L566.021 0.481203L529.263 50.5263L528.91 50.0451L565.667 0Z" fill="#5E5C61"/>
<path d="M570.666 0L571.019 0.481203L534.262 50.5263L533.908 50.0451L570.666 0Z" fill="#5E5C61"/>
<path d="M575.664 0L576.018 0.481203L539.26 50.5263L538.907 50.0451L575.664 0Z" fill="#5E5C61"/>
<path d="M580.663 0L581.016 0.481203L544.258 50.5263L543.905 50.0451L580.663 0Z" fill="#5E5C61"/>
<path d="M585.661 0L586.015 0.481203L549.257 50.5263L548.903 50.0451L585.661 0Z" fill="#5E5C61"/>
<path d="M590.659 0L591.013 0.481203L554.255 50.5263L553.902 50.0451L590.659 0Z" fill="#5E5C61"/>
<path d="M595.658 0L596.011 0.481203L559.254 50.5263L558.9 50.0451L595.658 0Z" fill="#5E5C61"/>
<path d="M600.656 0L601.01 0.481203L564.252 50.5263L563.899 50.0451L600.656 0Z" fill="#5E5C61"/>
<path d="M605.655 0L606.008 0.481203L569.25 50.5263L568.897 50.0451L605.655 0Z" fill="#5E5C61"/>
<path d="M610.653 0L611.006 0.481203L574.249 50.5263L573.895 50.0451L610.653 0Z" fill="#5E5C61"/>
<path d="M615.651 0L616.005 0.481203L579.247 50.5263L578.894 50.0451L615.651 0Z" fill="#5E5C61"/>
<path d="M620.65 0L621.003 0.481203L584.245 50.5263L583.892 50.0451L620.65 0Z" fill="#5E5C61"/>
<path d="M625.648 0L626.002 0.481203L589.244 50.5263L588.891 50.0451L625.648 0Z" fill="#5E5C61"/>
<path d="M630.647 0L631 0.481203L594.242 50.5263L593.889 50.0451L630.647 0Z" fill="#5E5C61"/>
</g>
<rect x="0.25" y="0.25" width="529.5" height="49.5" stroke="#5E5C61" stroke-width="0.5"/>
<defs>
<clipPath id="clip0_66_965">
<rect width="530" height="50" fill="white"/>
</clipPath>
</defs>
</svg>
