<svg width="306" height="45" viewBox="0 0 306 45" fill="none" xmlns="http://www.w3.org/2000/svg">
<g clip-path="url(#clip0_126_3466)">
<rect width="2" height="45" fill="url(#paint0_linear_126_3466)"/>
<mask id="mask0_126_3466" style="mask-type:alpha" maskUnits="userSpaceOnUse" x="4" y="0" width="133" height="45">
<path d="M4 0H91.5L137 45H4V0Z" fill="white"/>
</mask>
<g mask="url(#mask0_126_3466)">
<path d="M9.75771 0L10.1111 0.481203L-26.6466 50.5263L-27 50.0451L9.75771 0Z" fill="#5E5C61"/>
<path d="M14.7561 0L15.1095 0.481203L-21.6482 50.5263L-22.0016 50.0451L14.7561 0Z" fill="#5E5C61"/>
<path d="M19.7545 0L20.1079 0.481203L-16.6498 50.5263L-17.0032 50.0451L19.7545 0Z" fill="#5E5C61"/>
<path d="M24.7529 0L25.1063 0.481203L-11.6514 50.5263L-12.0048 50.0451L24.7529 0Z" fill="#5E5C61"/>
<path d="M29.7513 0L30.1047 0.481203L-6.653 50.5263L-7.00644 50.0451L29.7513 0Z" fill="#5E5C61"/>
<path d="M34.7496 0L35.1031 0.481203L-1.65461 50.5263L-2.00805 50.0451L34.7496 0Z" fill="#5E5C61"/>
<path d="M39.748 0L40.1015 0.481203L3.34377 50.5263L2.99034 50.0451L39.748 0Z" fill="#5E5C61"/>
<path d="M44.7464 0L45.0999 0.481203L8.34216 50.5263L7.98872 50.0451L44.7464 0Z" fill="#5E5C61"/>
<path d="M49.7448 0L50.0983 0.481203L13.3406 50.5263L12.9871 50.0451L49.7448 0Z" fill="#5E5C61"/>
<path d="M54.7432 0L55.0966 0.481203L18.3389 50.5263L17.9855 50.0451L54.7432 0Z" fill="#5E5C61"/>
<path d="M59.7416 0L60.095 0.481203L23.3373 50.5263L22.9839 50.0451L59.7416 0Z" fill="#5E5C61"/>
<path d="M64.74 0L65.0934 0.481203L28.3357 50.5263L27.9823 50.0451L64.74 0Z" fill="#5E5C61"/>
<path d="M69.7384 0L70.0918 0.481203L33.3341 50.5263L32.9807 50.0451L69.7384 0Z" fill="#5E5C61"/>
<path d="M74.7368 0L75.0902 0.481203L38.3325 50.5263L37.9791 50.0451L74.7368 0Z" fill="#5E5C61"/>
<path d="M79.7352 0L80.0886 0.481203L43.3309 50.5263L42.9774 50.0451L79.7352 0Z" fill="#5E5C61"/>
<path d="M84.7335 0L85.087 0.481203L48.3293 50.5263L47.9758 50.0451L84.7335 0Z" fill="#5E5C61"/>
<path d="M89.7319 0L90.0854 0.481203L53.3277 50.5263L52.9742 50.0451L89.7319 0Z" fill="#5E5C61"/>
<path d="M94.7303 0L95.0838 0.481203L58.3261 50.5263L57.9726 50.0451L94.7303 0Z" fill="#5E5C61"/>
<path d="M99.7287 0L100.082 0.481203L63.3244 50.5263L62.971 50.0451L99.7287 0Z" fill="#5E5C61"/>
<path d="M104.727 0L105.081 0.481203L68.3228 50.5263L67.9694 50.0451L104.727 0Z" fill="#5E5C61"/>
<path d="M109.725 0L110.079 0.481203L73.3212 50.5263L72.9678 50.0451L109.725 0Z" fill="#5E5C61"/>
<path d="M114.724 0L115.077 0.481203L78.3196 50.5263L77.9662 50.0451L114.724 0Z" fill="#5E5C61"/>
<path d="M119.722 0L120.076 0.481203L83.318 50.5263L82.9646 50.0451L119.722 0Z" fill="#5E5C61"/>
<path d="M124.721 0L125.074 0.481203L88.3164 50.5263L87.963 50.0451L124.721 0Z" fill="#5E5C61"/>
<path d="M129.719 0L130.072 0.481203L93.3148 50.5263L92.9613 50.0451L129.719 0Z" fill="#5E5C61"/>
<path d="M134.717 0L135.071 0.481203L98.3132 50.5263L97.9597 50.0451L134.717 0Z" fill="#5E5C61"/>
<path d="M139.716 0L140.069 0.481203L103.312 50.5263L102.958 50.0451L139.716 0Z" fill="#5E5C61"/>
<path d="M144.714 0L145.068 0.481203L108.31 50.5263L107.957 50.0451L144.714 0Z" fill="#5E5C61"/>
<path d="M149.713 0L150.066 0.481203L113.308 50.5263L112.955 50.0451L149.713 0Z" fill="#5E5C61"/>
<path d="M154.711 0L155.064 0.481203L118.307 50.5263L117.953 50.0451L154.711 0Z" fill="#5E5C61"/>
<path d="M159.709 0L160.063 0.481203L123.305 50.5263L122.952 50.0451L159.709 0Z" fill="#5E5C61"/>
<path d="M164.708 0L165.061 0.481203L128.303 50.5263L127.95 50.0451L164.708 0Z" fill="#5E5C61"/>
<path d="M169.706 0L170.06 0.481203L133.302 50.5263L132.948 50.0451L169.706 0Z" fill="#5E5C61"/>
<path d="M174.705 0L175.058 0.481203L138.3 50.5263L137.947 50.0451L174.705 0Z" fill="#5E5C61"/>
<path d="M179.703 0L180.056 0.481203L143.299 50.5263L142.945 50.0451L179.703 0Z" fill="#5E5C61"/>
<path d="M184.701 0L185.055 0.481203L148.297 50.5263L147.944 50.0451L184.701 0Z" fill="#5E5C61"/>
<path d="M189.7 0L190.053 0.481203L153.295 50.5263L152.942 50.0451L189.7 0Z" fill="#5E5C61"/>
<path d="M194.698 0L195.052 0.481203L158.294 50.5263L157.94 50.0451L194.698 0Z" fill="#5E5C61"/>
<path d="M199.696 0L200.05 0.481203L163.292 50.5263L162.939 50.0451L199.696 0Z" fill="#5E5C61"/>
<path d="M204.695 0L205.048 0.481203L168.291 50.5263L167.937 50.0451L204.695 0Z" fill="#5E5C61"/>
<path d="M209.693 0L210.047 0.481203L173.289 50.5263L172.936 50.0451L209.693 0Z" fill="#5E5C61"/>
<path d="M214.692 0L215.045 0.481203L178.287 50.5263L177.934 50.0451L214.692 0Z" fill="#5E5C61"/>
<path d="M219.69 0L220.043 0.481203L183.286 50.5263L182.932 50.0451L219.69 0Z" fill="#5E5C61"/>
<path d="M224.688 0L225.042 0.481203L188.284 50.5263L187.931 50.0451L224.688 0Z" fill="#5E5C61"/>
<path d="M229.687 0L230.04 0.481203L193.283 50.5263L192.929 50.0451L229.687 0Z" fill="#5E5C61"/>
<path d="M234.685 0L235.039 0.481203L198.281 50.5263L197.928 50.0451L234.685 0Z" fill="#5E5C61"/>
<path d="M239.684 0L240.037 0.481203L203.279 50.5263L202.926 50.0451L239.684 0Z" fill="#5E5C61"/>
<path d="M244.682 0L245.035 0.481203L208.278 50.5263L207.924 50.0451L244.682 0Z" fill="#5E5C61"/>
<path d="M249.68 0L250.034 0.481203L213.276 50.5263L212.923 50.0451L249.68 0Z" fill="#5E5C61"/>
<path d="M254.679 0L255.032 0.481203L218.275 50.5263L217.921 50.0451L254.679 0Z" fill="#5E5C61"/>
<path d="M259.677 0L260.031 0.481203L223.273 50.5263L222.919 50.0451L259.677 0Z" fill="#5E5C61"/>
<path d="M264.676 0L265.029 0.481203L228.271 50.5263L227.918 50.0451L264.676 0Z" fill="#5E5C61"/>
<path d="M269.674 0L270.027 0.481203L233.27 50.5263L232.916 50.0451L269.674 0Z" fill="#5E5C61"/>
<path d="M274.672 0L275.026 0.481203L238.268 50.5263L237.915 50.0451L274.672 0Z" fill="#5E5C61"/>
<path d="M279.671 0L280.024 0.481203L243.266 50.5263L242.913 50.0451L279.671 0Z" fill="#5E5C61"/>
<path d="M284.669 0L285.023 0.481203L248.265 50.5263L247.911 50.0451L284.669 0Z" fill="#5E5C61"/>
<path d="M289.668 0L290.021 0.481203L253.263 50.5263L252.91 50.0451L289.668 0Z" fill="#5E5C61"/>
<path d="M294.666 0L295.019 0.481203L258.262 50.5263L257.908 50.0451L294.666 0Z" fill="#5E5C61"/>
<path d="M299.664 0L300.018 0.481203L263.26 50.5263L262.907 50.0451L299.664 0Z" fill="#5E5C61"/>
<path d="M304.663 0L305.016 0.481203L268.258 50.5263L267.905 50.0451L304.663 0Z" fill="#5E5C61"/>
<path d="M309.661 0L310.014 0.481203L273.257 50.5263L272.903 50.0451L309.661 0Z" fill="#5E5C61"/>
<path d="M314.659 0L315.013 0.481203L278.255 50.5263L277.902 50.0451L314.659 0Z" fill="#5E5C61"/>
<path d="M319.658 0L320.011 0.481203L283.254 50.5263L282.9 50.0451L319.658 0Z" fill="#5E5C61"/>
<path d="M324.656 0L325.01 0.481203L288.252 50.5263L287.899 50.0451L324.656 0Z" fill="#5E5C61"/>
<path d="M329.655 0L330.008 0.481203L293.25 50.5263L292.897 50.0451L329.655 0Z" fill="#5E5C61"/>
<path d="M334.653 0L335.006 0.481203L298.249 50.5263L297.895 50.0451L334.653 0Z" fill="#5E5C61"/>
<path d="M339.651 0L340.005 0.481203L303.247 50.5263L302.894 50.0451L339.651 0Z" fill="#5E5C61"/>
<path d="M344.65 0L345.003 0.481203L308.246 50.5263L307.892 50.0451L344.65 0Z" fill="#5E5C61"/>
<path d="M349.648 0L350.002 0.481203L313.244 50.5263L312.89 50.0451L349.648 0Z" fill="#5E5C61"/>
<path d="M354.647 0L355 0.481203L318.242 50.5263L317.889 50.0451L354.647 0Z" fill="#5E5C61"/>
</g>
<path opacity="0.1" d="M306 45H139.5L94 0H260.5L306 45Z" fill="white"/>
<path d="M155.878 18.3457H153.531L154.656 16.4297H157.926V30H155.878V18.3457ZM170.255 30L173.112 15.4102L177.77 25.957L182.595 15.4102L185.162 30H183.061L181.752 21.8086L177.735 30.624L173.833 21.7998L172.374 30H170.255ZM190.812 16.4297V30H188.764V16.4297H190.812ZM196.841 16.4297V28.0752H200.831V30H194.793V16.4297H196.841ZM205.541 16.4297V28.0752H209.532V30H203.494V16.4297H205.541ZM214.242 16.4297V30H212.194V16.4297H214.242ZM217.546 23.1533C217.546 21.2432 218.246 19.6025 219.646 18.2314C221.041 16.8604 222.717 16.1748 224.674 16.1748C226.607 16.1748 228.266 16.8662 229.648 18.249C231.037 19.6318 231.731 21.293 231.731 23.2324C231.731 25.1836 231.034 26.8389 229.64 28.1982C228.239 29.5635 226.549 30.2461 224.568 30.2461C222.816 30.2461 221.243 29.6396 219.849 28.4268C218.313 27.085 217.546 25.3271 217.546 23.1533ZM219.611 23.1797C219.611 24.6797 220.115 25.9131 221.123 26.8799C222.125 27.8467 223.282 28.3301 224.595 28.3301C226.019 28.3301 227.22 27.8379 228.198 26.8535C229.177 25.8574 229.666 24.6445 229.666 23.2148C229.666 21.7676 229.183 20.5547 228.216 19.5762C227.255 18.5918 226.065 18.0996 224.647 18.0996C223.235 18.0996 222.043 18.5918 221.07 19.5762C220.098 20.5488 219.611 21.75 219.611 23.1797ZM235.027 30V15.5068L244.923 25.8604V16.4297H246.971V30.8262L237.074 20.499V30H235.027Z" fill="white"/>
<g filter="url(#filter0_d_126_3466)">
<circle cx="16" cy="22.5" r="4" fill="url(#paint1_linear_126_3466)"/>
</g>
<path d="M29.9492 23.1533C29.9492 21.2432 30.6494 19.6025 32.0498 18.2314C33.4443 16.8604 35.1201 16.1748 37.0771 16.1748C39.0107 16.1748 40.6689 16.8662 42.0518 18.249C43.4404 19.6318 44.1348 21.293 44.1348 23.2324C44.1348 25.1836 43.4375 26.8389 42.043 28.1982C40.6426 29.5635 38.9521 30.2461 36.9717 30.2461C35.2197 30.2461 33.6465 29.6396 32.252 28.4268C30.7168 27.085 29.9492 25.3271 29.9492 23.1533ZM32.0146 23.1797C32.0146 24.6797 32.5186 25.9131 33.5264 26.8799C34.5283 27.8467 35.6855 28.3301 36.998 28.3301C38.4219 28.3301 39.623 27.8379 40.6016 26.8535C41.5801 25.8574 42.0693 24.6445 42.0693 23.2148C42.0693 21.7676 41.5859 20.5547 40.6191 19.5762C39.6582 18.5918 38.4688 18.0996 37.0508 18.0996C35.6387 18.0996 34.4463 18.5918 33.4736 19.5762C32.501 20.5488 32.0146 21.75 32.0146 23.1797ZM48.1155 21.4395L50.3304 26.2471L52.5364 21.4395H54.76L50.3128 30.5889L45.9007 21.4395H48.1155ZM64.3043 26.1855H58.1695C58.2222 26.8887 58.4507 27.4482 58.855 27.8643C59.2593 28.2744 59.7779 28.4795 60.4107 28.4795C60.9029 28.4795 61.3101 28.3623 61.6324 28.1279C61.9488 27.8936 62.3091 27.46 62.7134 26.8271L64.3834 27.7588C64.1255 28.1982 63.8531 28.5762 63.566 28.8926C63.2789 29.2031 62.9713 29.4609 62.6431 29.666C62.315 29.8652 61.9605 30.0117 61.5796 30.1055C61.1988 30.1992 60.7857 30.2461 60.3404 30.2461C59.063 30.2461 58.0377 29.8359 57.2642 29.0156C56.4908 28.1895 56.1041 27.0938 56.1041 25.7285C56.1041 24.375 56.4791 23.2793 57.2291 22.4414C57.9849 21.6152 58.9869 21.2021 60.2349 21.2021C61.4947 21.2021 62.4908 21.6035 63.2232 22.4062C63.9498 23.2031 64.313 24.3076 64.313 25.7197L64.3043 26.1855ZM62.274 24.5684C61.9986 23.5137 61.3336 22.9863 60.2789 22.9863C60.0386 22.9863 59.813 23.0244 59.6021 23.1006C59.3912 23.1709 59.1978 23.2764 59.022 23.417C58.8521 23.5518 58.7056 23.7158 58.5826 23.9092C58.4595 24.1025 58.3658 24.3223 58.3013 24.5684H62.274ZM67.1952 21.4395H69.1727V22.2041C69.536 21.8232 69.8582 21.5625 70.1395 21.4219C70.4266 21.2754 70.7664 21.2021 71.159 21.2021C71.6805 21.2021 72.2254 21.3721 72.7938 21.7119L71.8885 23.5225C71.5135 23.2529 71.1473 23.1182 70.7899 23.1182C69.7118 23.1182 69.1727 23.9326 69.1727 25.5615V30H67.1952V21.4395Z" fill="white"/>
</g>
<defs>
<filter id="filter0_d_126_3466" x="0" y="6.5" width="32" height="32" filterUnits="userSpaceOnUse" color-interpolation-filters="sRGB">
<feFlood flood-opacity="0" result="BackgroundImageFix"/>
<feColorMatrix in="SourceAlpha" type="matrix" values="0 0 0 0 0 0 0 0 0 0 0 0 0 0 0 0 0 0 127 0" result="hardAlpha"/>
<feOffset/>
<feGaussianBlur stdDeviation="6"/>
<feComposite in2="hardAlpha" operator="out"/>
<feColorMatrix type="matrix" values="0 0 0 0 0.396078 0 0 0 0 0.811765 0 0 0 0 0.0352941 0 0 0 0.45 0"/>
<feBlend mode="normal" in2="BackgroundImageFix" result="effect1_dropShadow_126_3466"/>
<feBlend mode="normal" in="SourceGraphic" in2="effect1_dropShadow_126_3466" result="shape"/>
</filter>
<linearGradient id="paint0_linear_126_3466" x1="1" y1="0" x2="1" y2="45" gradientUnits="userSpaceOnUse">
<stop stop-color="#77E609"/>
<stop offset="1" stop-color="#298708"/>
</linearGradient>
<linearGradient id="paint1_linear_126_3466" x1="16" y1="18.5" x2="16" y2="26.5" gradientUnits="userSpaceOnUse">
<stop stop-color="#77E609"/>
<stop offset="1" stop-color="#298708"/>
</linearGradient>
<clipPath id="clip0_126_3466">
<rect width="306" height="45" fill="white"/>
</clipPath>
</defs>
</svg>
