<svg width="56" height="56" viewBox="0 0 56 56" fill="none" xmlns="http://www.w3.org/2000/svg">
<rect x="33.0742" y="5.75" width="20.6758" height="0.5" stroke="white" stroke-width="0.5"/>
<rect x="53.25" y="28.75" width="22.5" height="0.5" transform="rotate(-90 53.25 28.75)" stroke="white" stroke-width="0.5"/>
<rect x="2.25" y="28.75" width="22.5" height="0.5" transform="rotate(-90 2.25 28.75)" stroke="white" stroke-width="0.5"/>
<rect x="2.25" y="5.75" width="20.5439" height="0.5" stroke="white" stroke-width="0.5"/>
<rect x="2.25" y="53.25" width="51.5" height="0.5" stroke="#919191" stroke-width="0.5" stroke-dasharray="1 4"/>
<rect x="53.25" y="53.75" width="22.5" height="0.5" transform="rotate(-90 53.25 53.75)" stroke="#919191" stroke-width="0.5" stroke-dasharray="1 4"/>
<rect x="2.25" y="53.75" width="22.5" height="0.5" transform="rotate(-90 2.25 53.75)" stroke="#919191" stroke-width="0.5" stroke-dasharray="1 4"/>
<rect x="53" y="53" width="1" height="1" fill="#919191"/>
<rect x="2" y="53" width="1" height="1" fill="#919191"/>
<path d="M22.7071 6L28 0.707107L33.2929 6L28 11.2929L22.7071 6Z" stroke="white"/>
<path d="M25 6L28 3L31 6L28 9L25 6Z" fill="#0DF4E7"/>
<rect width="5" height="1" transform="matrix(-1 0 0 1 5 29)" fill="white"/>
<rect width="3" height="1" transform="matrix(-1 0 0 1 4 31)" fill="white"/>
<rect width="5" height="1" transform="matrix(-1 0 0 1 56 29)" fill="white"/>
<rect width="3" height="1" transform="matrix(-1 0 0 1 55 31)" fill="white"/>
<path d="M33.4291 22.3517C32.2106 21.033 30.5132 20.1587 28.6111 20.0015V27.175L33.4291 22.3517Z" fill="white"/>
<path d="M28.8642 28.6519L34.187 23.3233C34.9379 24.4729 35.3741 25.8444 35.3741 27.3173C35.3741 29.4703 34.4421 31.4068 32.9574 32.7496L28.8642 28.6519Z" fill="white"/>
<path d="M27.1358 28.6519L21.8023 23.3126C21.047 24.4643 20.608 25.8398 20.608 27.3173C20.608 29.4748 21.5439 31.4149 23.0341 32.7581L27.1358 28.6519Z" fill="white"/>
<path d="M24.0164 33.5051L27.3889 30.1289V34.6347C26.1539 34.5355 25.0048 34.1342 24.0164 33.5051Z" fill="white"/>
<path d="M22.1023 33.6909C20.6779 32.3625 19.7052 30.5545 19.4519 28.5111C19.3688 27.8404 18.7546 27.3637 18.0801 27.4464C17.4056 27.529 16.9262 28.1397 17.0094 28.8104C17.3323 31.4162 18.5632 33.7235 20.3674 35.4277L22.1023 33.6909Z" fill="white"/>
<path d="M21.3047 36.2198L23.0591 34.4635C24.3052 35.331 25.7905 35.8775 27.3889 35.988V42H23.0689V39.5529H26.7604V38.3883C24.7311 38.1641 22.8589 37.3924 21.3047 36.2198Z" fill="white"/>
<path d="M28.6111 34.6332V30.1289L31.9767 33.4982C30.9906 34.1282 29.8438 34.5313 28.6111 34.6332Z" fill="white"/>
<path d="M28.6111 35.9869C30.2081 35.8736 31.6908 35.3252 32.9344 34.457L34.6884 36.2129C33.1323 37.3896 31.2563 38.1642 29.2214 38.3886V39.5529H32.913V42H28.6111V35.9869Z" fill="white"/>
<path d="M33.8899 33.6832L35.6248 35.4199C37.4608 33.682 38.7008 31.3194 38.9927 28.6562C39.0663 27.9845 38.5783 27.3805 37.9027 27.3073C37.2271 27.2341 36.6197 27.7194 36.5461 28.3911C36.3174 30.4784 35.3382 32.3289 33.8899 33.6832Z" fill="white"/>
<path d="M22.5617 22.3424L27.3889 27.175V20C25.484 20.1529 23.7834 21.0248 22.5617 22.3424Z" fill="white"/>
</svg>
