<svg width="732" height="51" viewBox="0 0 732 51" fill="none" xmlns="http://www.w3.org/2000/svg">
<path d="M36.7577 0L37.1111 0.485714L0.353439 51L0 50.5143L36.7577 0Z" fill="#5E5C61"/>
<path d="M41.7561 0L42.1095 0.485714L5.35183 51L4.99839 50.5143L41.7561 0Z" fill="#5E5C61"/>
<path d="M46.7545 0L47.1079 0.485714L10.3502 51L9.99678 50.5143L46.7545 0Z" fill="#5E5C61"/>
<path d="M51.7529 0L52.1063 0.485714L15.3486 51L14.9952 50.5143L51.7529 0Z" fill="#5E5C61"/>
<path d="M56.7513 0L57.1047 0.485714L20.347 51L19.9936 50.5143L56.7513 0Z" fill="#5E5C61"/>
<path d="M61.7496 0L62.1031 0.485714L25.3454 51L24.9919 50.5143L61.7496 0Z" fill="#5E5C61"/>
<path d="M66.748 0L67.1015 0.485714L30.3438 51L29.9903 50.5143L66.748 0Z" fill="#5E5C61"/>
<path d="M71.7464 0L72.0999 0.485714L35.3422 51L34.9887 50.5143L71.7464 0Z" fill="#5E5C61"/>
<path d="M76.7448 0L77.0983 0.485714L40.3406 51L39.9871 50.5143L76.7448 0Z" fill="#5E5C61"/>
<path d="M81.7432 0L82.0966 0.485714L45.3389 51L44.9855 50.5143L81.7432 0Z" fill="#5E5C61"/>
<path d="M86.7416 0L87.095 0.485714L50.3373 51L49.9839 50.5143L86.7416 0Z" fill="#5E5C61"/>
<path d="M91.74 0L92.0934 0.485714L55.3357 51L54.9823 50.5143L91.74 0Z" fill="#5E5C61"/>
<path d="M96.7384 0L97.0918 0.485714L60.3341 51L59.9807 50.5143L96.7384 0Z" fill="#5E5C61"/>
<path d="M101.737 0L102.09 0.485714L65.3325 51L64.9791 50.5143L101.737 0Z" fill="#5E5C61"/>
<path d="M106.735 0L107.089 0.485714L70.3309 51L69.9774 50.5143L106.735 0Z" fill="#5E5C61"/>
<path d="M111.734 0L112.087 0.485714L75.3293 51L74.9758 50.5143L111.734 0Z" fill="#5E5C61"/>
<path d="M116.732 0L117.085 0.485714L80.3277 51L79.9742 50.5143L116.732 0Z" fill="#5E5C61"/>
<path d="M121.73 0L122.084 0.485714L85.3261 51L84.9726 50.5143L121.73 0Z" fill="#5E5C61"/>
<path d="M126.729 0L127.082 0.485714L90.3244 51L89.971 50.5143L126.729 0Z" fill="#5E5C61"/>
<path d="M131.727 0L132.081 0.485714L95.3228 51L94.9694 50.5143L131.727 0Z" fill="#5E5C61"/>
<path d="M136.725 0L137.079 0.485714L100.321 51L99.9678 50.5143L136.725 0Z" fill="#5E5C61"/>
<path d="M141.724 0L142.077 0.485714L105.32 51L104.966 50.5143L141.724 0Z" fill="#5E5C61"/>
<path d="M146.722 0L147.076 0.485714L110.318 51L109.965 50.5143L146.722 0Z" fill="#5E5C61"/>
<path d="M151.721 0L152.074 0.485714L115.316 51L114.963 50.5143L151.721 0Z" fill="#5E5C61"/>
<path d="M156.719 0L157.072 0.485714L120.315 51L119.961 50.5143L156.719 0Z" fill="#5E5C61"/>
<path d="M161.717 0L162.071 0.485714L125.313 51L124.96 50.5143L161.717 0Z" fill="#5E5C61"/>
<path d="M166.716 0L167.069 0.485714L130.312 51L129.958 50.5143L166.716 0Z" fill="#5E5C61"/>
<path d="M171.714 0L172.068 0.485714L135.31 51L134.957 50.5143L171.714 0Z" fill="#5E5C61"/>
<path d="M176.713 0L177.066 0.485714L140.308 51L139.955 50.5143L176.713 0Z" fill="#5E5C61"/>
<path d="M181.711 0L182.064 0.485714L145.307 51L144.953 50.5143L181.711 0Z" fill="#5E5C61"/>
<path d="M186.709 0L187.063 0.485714L150.305 51L149.952 50.5143L186.709 0Z" fill="#5E5C61"/>
<path d="M191.708 0L192.061 0.485714L155.303 51L154.95 50.5143L191.708 0Z" fill="#5E5C61"/>
<path d="M196.706 0L197.06 0.485714L160.302 51L159.948 50.5143L196.706 0Z" fill="#5E5C61"/>
<path d="M201.705 0L202.058 0.485714L165.3 51L164.947 50.5143L201.705 0Z" fill="#5E5C61"/>
<path d="M206.703 0L207.056 0.485714L170.299 51L169.945 50.5143L206.703 0Z" fill="#5E5C61"/>
<path d="M211.701 0L212.055 0.485714L175.297 51L174.944 50.5143L211.701 0Z" fill="#5E5C61"/>
<path d="M216.7 0L217.053 0.485714L180.295 51L179.942 50.5143L216.7 0Z" fill="#5E5C61"/>
<path d="M221.698 0L222.052 0.485714L185.294 51L184.94 50.5143L221.698 0Z" fill="#5E5C61"/>
<path d="M226.696 0L227.05 0.485714L190.292 51L189.939 50.5143L226.696 0Z" fill="#5E5C61"/>
<path d="M231.695 0L232.048 0.485714L195.291 51L194.937 50.5143L231.695 0Z" fill="#5E5C61"/>
<path d="M236.693 0L237.047 0.485714L200.289 51L199.936 50.5143L236.693 0Z" fill="#5E5C61"/>
<path d="M241.692 0L242.045 0.485714L205.287 51L204.934 50.5143L241.692 0Z" fill="#5E5C61"/>
<path d="M246.69 0L247.043 0.485714L210.286 51L209.932 50.5143L246.69 0Z" fill="#5E5C61"/>
<path d="M251.688 0L252.042 0.485714L215.284 51L214.931 50.5143L251.688 0Z" fill="#5E5C61"/>
<path d="M256.687 0L257.04 0.485714L220.283 51L219.929 50.5143L256.687 0Z" fill="#5E5C61"/>
<path d="M261.685 0L262.039 0.485714L225.281 51L224.928 50.5143L261.685 0Z" fill="#5E5C61"/>
<path d="M266.684 0L267.037 0.485714L230.279 51L229.926 50.5143L266.684 0Z" fill="#5E5C61"/>
<path d="M271.682 0L272.035 0.485714L235.278 51L234.924 50.5143L271.682 0Z" fill="#5E5C61"/>
<path d="M276.68 0L277.034 0.485714L240.276 51L239.923 50.5143L276.68 0Z" fill="#5E5C61"/>
<path d="M281.679 0L282.032 0.485714L245.275 51L244.921 50.5143L281.679 0Z" fill="#5E5C61"/>
<path d="M286.677 0L287.031 0.485714L250.273 51L249.919 50.5143L286.677 0Z" fill="#5E5C61"/>
<path d="M291.676 0L292.029 0.485714L255.271 51L254.918 50.5143L291.676 0Z" fill="#5E5C61"/>
<path d="M296.674 0L297.027 0.485714L260.27 51L259.916 50.5143L296.674 0Z" fill="#5E5C61"/>
<path d="M301.672 0L302.026 0.485714L265.268 51L264.915 50.5143L301.672 0Z" fill="#5E5C61"/>
<path d="M306.671 0L307.024 0.485714L270.266 51L269.913 50.5143L306.671 0Z" fill="#5E5C61"/>
<path d="M311.669 0L312.023 0.485714L275.265 51L274.911 50.5143L311.669 0Z" fill="#5E5C61"/>
<path d="M316.668 0L317.021 0.485714L280.263 51L279.91 50.5143L316.668 0Z" fill="#5E5C61"/>
<path d="M321.666 0L322.019 0.485714L285.262 51L284.908 50.5143L321.666 0Z" fill="#5E5C61"/>
<path d="M326.664 0L327.018 0.485714L290.26 51L289.907 50.5143L326.664 0Z" fill="#5E5C61"/>
<path d="M331.663 0L332.016 0.485714L295.258 51L294.905 50.5143L331.663 0Z" fill="#5E5C61"/>
<path d="M336.661 0L337.014 0.485714L300.257 51L299.903 50.5143L336.661 0Z" fill="#5E5C61"/>
<path d="M341.659 0L342.013 0.485714L305.255 51L304.902 50.5143L341.659 0Z" fill="#5E5C61"/>
<path d="M346.658 0L347.011 0.485714L310.254 51L309.9 50.5143L346.658 0Z" fill="#5E5C61"/>
<path d="M351.656 0L352.01 0.485714L315.252 51L314.899 50.5143L351.656 0Z" fill="#5E5C61"/>
<path d="M356.655 0L357.008 0.485714L320.25 51L319.897 50.5143L356.655 0Z" fill="#5E5C61"/>
<path d="M361.653 0L362.006 0.485714L325.249 51L324.895 50.5143L361.653 0Z" fill="#5E5C61"/>
<path d="M366.651 0L367.005 0.485714L330.247 51L329.894 50.5143L366.651 0Z" fill="#5E5C61"/>
<path d="M371.65 0L372.003 0.485714L335.246 51L334.892 50.5143L371.65 0Z" fill="#5E5C61"/>
<path d="M376.648 0L377.002 0.485714L340.244 51L339.89 50.5143L376.648 0Z" fill="#5E5C61"/>
<path d="M381.647 0L382 0.485714L345.242 51L344.889 50.5143L381.647 0Z" fill="#5E5C61"/>
<path d="M386.758 0L387.111 0.485714L350.353 51L350 50.5143L386.758 0Z" fill="#5E5C61"/>
<path d="M391.756 0L392.11 0.485714L355.352 51L354.998 50.5143L391.756 0Z" fill="#5E5C61"/>
<path d="M396.754 0L397.108 0.485714L360.35 51L359.997 50.5143L396.754 0Z" fill="#5E5C61"/>
<path d="M401.753 0L402.106 0.485714L365.349 51L364.995 50.5143L401.753 0Z" fill="#5E5C61"/>
<path d="M406.751 0L407.105 0.485714L370.347 51L369.994 50.5143L406.751 0Z" fill="#5E5C61"/>
<path d="M411.75 0L412.103 0.485714L375.345 51L374.992 50.5143L411.75 0Z" fill="#5E5C61"/>
<path d="M416.748 0L417.101 0.485714L380.344 51L379.99 50.5143L416.748 0Z" fill="#5E5C61"/>
<path d="M421.746 0L422.1 0.485714L385.342 51L384.989 50.5143L421.746 0Z" fill="#5E5C61"/>
<path d="M426.745 0L427.098 0.485714L390.341 51L389.987 50.5143L426.745 0Z" fill="#5E5C61"/>
<path d="M431.743 0L432.097 0.485714L395.339 51L394.986 50.5143L431.743 0Z" fill="#5E5C61"/>
<path d="M436.742 0L437.095 0.485714L400.337 51L399.984 50.5143L436.742 0Z" fill="#5E5C61"/>
<path d="M441.74 0L442.093 0.485714L405.336 51L404.982 50.5143L441.74 0Z" fill="#5E5C61"/>
<path d="M446.738 0L447.092 0.485714L410.334 51L409.981 50.5143L446.738 0Z" fill="#5E5C61"/>
<path d="M451.737 0L452.09 0.485714L415.332 51L414.979 50.5143L451.737 0Z" fill="#5E5C61"/>
<path d="M456.735 0L457.089 0.485714L420.331 51L419.977 50.5143L456.735 0Z" fill="#5E5C61"/>
<path d="M461.734 0L462.087 0.485714L425.329 51L424.976 50.5143L461.734 0Z" fill="#5E5C61"/>
<path d="M466.732 0L467.085 0.485714L430.328 51L429.974 50.5143L466.732 0Z" fill="#5E5C61"/>
<path d="M471.73 0L472.084 0.485714L435.326 51L434.973 50.5143L471.73 0Z" fill="#5E5C61"/>
<path d="M476.729 0L477.082 0.485714L440.324 51L439.971 50.5143L476.729 0Z" fill="#5E5C61"/>
<path d="M481.727 0L482.081 0.485714L445.323 51L444.969 50.5143L481.727 0Z" fill="#5E5C61"/>
<path d="M486.725 0L487.079 0.485714L450.321 51L449.968 50.5143L486.725 0Z" fill="#5E5C61"/>
<path d="M491.724 0L492.077 0.485714L455.32 51L454.966 50.5143L491.724 0Z" fill="#5E5C61"/>
<path d="M496.722 0L497.076 0.485714L460.318 51L459.965 50.5143L496.722 0Z" fill="#5E5C61"/>
<path d="M501.721 0L502.074 0.485714L465.316 51L464.963 50.5143L501.721 0Z" fill="#5E5C61"/>
<path d="M506.719 0L507.072 0.485714L470.315 51L469.961 50.5143L506.719 0Z" fill="#5E5C61"/>
<path d="M511.717 0L512.071 0.485714L475.313 51L474.96 50.5143L511.717 0Z" fill="#5E5C61"/>
<path d="M516.716 0L517.069 0.485714L480.312 51L479.958 50.5143L516.716 0Z" fill="#5E5C61"/>
<path d="M521.714 0L522.068 0.485714L485.31 51L484.957 50.5143L521.714 0Z" fill="#5E5C61"/>
<path d="M526.713 0L527.066 0.485714L490.308 51L489.955 50.5143L526.713 0Z" fill="#5E5C61"/>
<path d="M531.711 0L532.064 0.485714L495.307 51L494.953 50.5143L531.711 0Z" fill="#5E5C61"/>
<path d="M536.709 0L537.063 0.485714L500.305 51L499.952 50.5143L536.709 0Z" fill="#5E5C61"/>
<path d="M541.708 0L542.061 0.485714L505.303 51L504.95 50.5143L541.708 0Z" fill="#5E5C61"/>
<path d="M546.706 0L547.06 0.485714L510.302 51L509.948 50.5143L546.706 0Z" fill="#5E5C61"/>
<path d="M551.705 0L552.058 0.485714L515.3 51L514.947 50.5143L551.705 0Z" fill="#5E5C61"/>
<path d="M556.703 0L557.056 0.485714L520.299 51L519.945 50.5143L556.703 0Z" fill="#5E5C61"/>
<path d="M561.701 0L562.055 0.485714L525.297 51L524.944 50.5143L561.701 0Z" fill="#5E5C61"/>
<path d="M566.7 0L567.053 0.485714L530.295 51L529.942 50.5143L566.7 0Z" fill="#5E5C61"/>
<path d="M571.698 0L572.052 0.485714L535.294 51L534.94 50.5143L571.698 0Z" fill="#5E5C61"/>
<path d="M576.696 0L577.05 0.485714L540.292 51L539.939 50.5143L576.696 0Z" fill="#5E5C61"/>
<path d="M581.695 0L582.048 0.485714L545.291 51L544.937 50.5143L581.695 0Z" fill="#5E5C61"/>
<path d="M586.693 0L587.047 0.485714L550.289 51L549.936 50.5143L586.693 0Z" fill="#5E5C61"/>
<path d="M591.692 0L592.045 0.485714L555.287 51L554.934 50.5143L591.692 0Z" fill="#5E5C61"/>
<path d="M596.69 0L597.044 0.485714L560.286 51L559.932 50.5143L596.69 0Z" fill="#5E5C61"/>
<path d="M601.688 0L602.042 0.485714L565.284 51L564.931 50.5143L601.688 0Z" fill="#5E5C61"/>
<path d="M606.687 0L607.04 0.485714L570.283 51L569.929 50.5143L606.687 0Z" fill="#5E5C61"/>
<path d="M611.685 0L612.039 0.485714L575.281 51L574.927 50.5143L611.685 0Z" fill="#5E5C61"/>
<path d="M616.684 0L617.037 0.485714L580.279 51L579.926 50.5143L616.684 0Z" fill="#5E5C61"/>
<path d="M621.682 0L622.035 0.485714L585.278 51L584.924 50.5143L621.682 0Z" fill="#5E5C61"/>
<path d="M626.68 0L627.034 0.485714L590.276 51L589.923 50.5143L626.68 0Z" fill="#5E5C61"/>
<path d="M631.679 0L632.032 0.485714L595.274 51L594.921 50.5143L631.679 0Z" fill="#5E5C61"/>
<path d="M636.677 0L637.031 0.485714L600.273 51L599.919 50.5143L636.677 0Z" fill="#5E5C61"/>
<path d="M641.676 0L642.029 0.485714L605.271 51L604.918 50.5143L641.676 0Z" fill="#5E5C61"/>
<path d="M646.674 0L647.027 0.485714L610.27 51L609.916 50.5143L646.674 0Z" fill="#5E5C61"/>
<path d="M651.672 0L652.026 0.485714L615.268 51L614.915 50.5143L651.672 0Z" fill="#5E5C61"/>
<path d="M656.671 0L657.024 0.485714L620.266 51L619.913 50.5143L656.671 0Z" fill="#5E5C61"/>
<path d="M661.669 0L662.023 0.485714L625.265 51L624.911 50.5143L661.669 0Z" fill="#5E5C61"/>
<path d="M666.667 0L667.021 0.485714L630.263 51L629.91 50.5143L666.667 0Z" fill="#5E5C61"/>
<path d="M671.666 0L672.019 0.485714L635.262 51L634.908 50.5143L671.666 0Z" fill="#5E5C61"/>
<path d="M676.664 0L677.018 0.485714L640.26 51L639.907 50.5143L676.664 0Z" fill="#5E5C61"/>
<path d="M681.663 0L682.016 0.485714L645.258 51L644.905 50.5143L681.663 0Z" fill="#5E5C61"/>
<path d="M686.661 0L687.015 0.485714L650.257 51L649.903 50.5143L686.661 0Z" fill="#5E5C61"/>
<path d="M691.659 0L692.013 0.485714L655.255 51L654.902 50.5143L691.659 0Z" fill="#5E5C61"/>
<path d="M696.658 0L697.011 0.485714L660.254 51L659.9 50.5143L696.658 0Z" fill="#5E5C61"/>
<path d="M701.656 0L702.01 0.485714L665.252 51L664.898 50.5143L701.656 0Z" fill="#5E5C61"/>
<path d="M706.655 0L707.008 0.485714L670.25 51L669.897 50.5143L706.655 0Z" fill="#5E5C61"/>
<path d="M711.653 0L712.006 0.485714L675.249 51L674.895 50.5143L711.653 0Z" fill="#5E5C61"/>
<path d="M716.651 0L717.005 0.485714L680.247 51L679.894 50.5143L716.651 0Z" fill="#5E5C61"/>
<path d="M721.65 0L722.003 0.485714L685.245 51L684.892 50.5143L721.65 0Z" fill="#5E5C61"/>
<path d="M726.648 0L727.002 0.485714L690.244 51L689.89 50.5143L726.648 0Z" fill="#5E5C61"/>
<path d="M731.647 0L732 0.485714L695.242 51L694.889 50.5143L731.647 0Z" fill="#5E5C61"/>
</svg>
