<svg width="24" height="24" viewBox="0 0 24 24" fill="none" xmlns="http://www.w3.org/2000/svg">
<path fill-rule="evenodd" clip-rule="evenodd" d="M10.5 2H11.5V10.6815L5 8.55562V2.44001C6.15281 2 7.748 2 10.5 2ZM5 9.61252L11.5 11.7384V22C11.2657 21.9012 11.0573 21.7296 10.9133 21.485L10.3712 20.5646C9.95073 19.8506 9.74049 19.4937 9.40279 19.2963C9.06509 19.0989 8.63992 19.0915 7.78958 19.0768C6.53422 19.055 5.74689 18.9777 5.08658 18.7028C5.05758 18.6908 5.02872 18.6784 5 18.6658V9.61252ZM12.5 12.0655V22C12.7343 21.9012 12.9426 21.7296 13.0867 21.485L13.6288 20.5646C14.0492 19.8506 14.2595 19.4936 14.5972 19.2963C14.9349 19.0989 15.36 19.0915 16.2104 19.0768C17.4658 19.055 18.2531 18.9777 18.9134 18.7028C18.9424 18.6908 18.9713 18.6784 19 18.6658V14.1914L12.5 12.0655ZM12.5 2V11.0086L19 13.1345V9.53766C16.5147 9.53766 14.5 7.51282 14.5 5.01506C14.5 4.25397 14.6871 3.53678 15.0175 2.90742C15.2169 2.52758 14.9755 2.00245 14.5481 2.00107C14.2185 2 13.8697 2 13.5 2H12.5ZM20 18.0804V14.5184L21.8584 15.1263C21.8032 15.4451 21.7263 15.7239 21.6194 15.9833C21.2735 16.8226 20.7111 17.5443 20 18.0804ZM20 13.4615V9.42559C20.387 9.33733 20.7551 9.19893 21.0971 9.01756C21.4751 8.81712 21.9976 9.05981 21.9989 9.48929C22 9.8206 22 10.1712 22 10.5427V11.5477C22 12.6132 22 13.4363 21.9641 14.1039L20 13.4615ZM2.03384 7.5855L4 8.22856V3.00502C3.49627 3.38471 3.06726 3.85752 2.7368 4.39949C2.26387 5.17512 2.0945 6.13061 2.03384 7.5855ZM4 9.28545L2.00736 8.63374C2 9.20179 2 9.83408 2 10.5427V11.5477C2 13.8891 2 15.0598 2.3806 15.9833C2.72652 16.8226 3.28893 17.5443 4 18.0804V9.28545ZM19 2C19.674 2 20.2961 2.22227 20.797 2.59751L16.3916 6.48301C16.1424 6.04561 16 5.53943 16 5C16 3.34315 17.3431 2 19 2ZM21.4872 3.32208L17.0247 7.25798C17.5524 7.72 18.2435 8 19 8C20.6569 8 22 6.65685 22 5C22 4.37842 21.811 3.801 21.4872 3.32208Z" fill="url(#paint0_linear_44_316)"/>
<defs>
<linearGradient id="paint0_linear_44_316" x1="12" y1="2" x2="12" y2="22" gradientUnits="userSpaceOnUse">
<stop stop-color="#FFE600"/>
<stop offset="1" stop-color="#FF8A00"/>
</linearGradient>
</defs>
</svg>
