<svg width="56" height="56" viewBox="0 0 56 56" fill="none" xmlns="http://www.w3.org/2000/svg">
<rect x="33.0742" y="5.75" width="20.6758" height="0.5" stroke="white" stroke-width="0.5"/>
<rect x="53.25" y="28.75" width="22.5" height="0.5" transform="rotate(-90 53.25 28.75)" stroke="white" stroke-width="0.5"/>
<rect x="2.25" y="28.75" width="22.5" height="0.5" transform="rotate(-90 2.25 28.75)" stroke="white" stroke-width="0.5"/>
<rect x="2.25" y="5.75" width="20.5439" height="0.5" stroke="white" stroke-width="0.5"/>
<rect x="2.25" y="53.25" width="51.5" height="0.5" stroke="#919191" stroke-width="0.5" stroke-dasharray="1 4"/>
<rect x="53.25" y="53.75" width="22.5" height="0.5" transform="rotate(-90 53.25 53.75)" stroke="#919191" stroke-width="0.5" stroke-dasharray="1 4"/>
<rect x="2.25" y="53.75" width="22.5" height="0.5" transform="rotate(-90 2.25 53.75)" stroke="#919191" stroke-width="0.5" stroke-dasharray="1 4"/>
<rect x="53" y="53" width="1" height="1" fill="#919191"/>
<rect x="2" y="53" width="1" height="1" fill="#919191"/>
<path d="M22.7071 6L28 0.707107L33.2929 6L28 11.2929L22.7071 6Z" stroke="white"/>
<path d="M25 6L28 3L31 6L28 9L25 6Z" fill="#FFE600"/>
<rect width="5" height="1" transform="matrix(-1 0 0 1 5 29)" fill="white"/>
<rect width="3" height="1" transform="matrix(-1 0 0 1 4 31)" fill="white"/>
<rect width="5" height="1" transform="matrix(-1 0 0 1 56 29)" fill="white"/>
<rect width="3" height="1" transform="matrix(-1 0 0 1 55 31)" fill="white"/>
<path fill-rule="evenodd" clip-rule="evenodd" d="M20 24.0443C19.225 24.1345 18.6675 24.3131 18.2173 24.6667C18.0424 24.804 17.8826 24.9583 17.7403 25.1271C17 26.0052 17 27.3058 17 29.9069C17 30.567 17 30.897 17.1659 31.1545C17.1982 31.2046 17.2347 31.2521 17.2752 31.2963C17.4831 31.5236 17.8106 31.6185 18.4656 31.8081L20 32.2524V24.0443ZM20 33.9148L18.1064 33.3666C18.1395 36.6731 18.3397 39.7182 19.5497 40.7563C19.691 40.8774 19.8406 40.9868 20 41.0856V33.9148ZM21 41.5335V34.2044L23.6118 34.9606C23.6957 35.7385 24.2191 36.4167 24.9829 36.7116L25.7531 37.0089C26.3166 37.2264 26.9055 37.359 27.5 37.4065V42C24.419 41.9989 22.4075 41.9765 21 41.5335ZM21 32.5419V23.9744C21.609 23.9523 22.3229 23.9523 23.1698 23.9523H27.5V30.3221H25.8C24.585 30.3221 23.6 31.2728 23.6 32.4454V33.2947L21 32.5419ZM32.8302 23.9523C33.6771 23.9523 34.391 23.9523 35 23.9744V32.5419L32.4 33.2947V32.4454C32.4 31.2728 31.415 30.3221 30.2 30.3221H28.5V23.9523H32.8302ZM32.3882 34.9606L35 34.2043V41.5335C33.5925 41.9765 31.5811 41.9989 28.5 42V37.4065C29.0945 37.359 29.6834 37.2264 30.2469 37.0089L31.0171 36.7116C31.7809 36.4167 32.3043 35.7384 32.3882 34.9606ZM36 33.9148V41.0854C36.1593 40.9867 36.3089 40.8774 36.4501 40.7563C37.6601 39.7182 37.8602 36.6731 37.8933 33.3666L36 33.9148ZM36 24.0443V32.2524L37.5344 31.8081L37.5344 31.8081C38.1894 31.6185 38.5169 31.5236 38.7248 31.2963C38.7653 31.2521 38.8018 31.2046 38.8341 31.1545C39 30.897 39 30.567 39 29.9069C39 27.3058 39 26.0052 38.2597 25.1271C38.1174 24.9583 37.9576 24.804 37.7827 24.6667C37.3325 24.3131 36.775 24.1345 36 24.0443ZM27.5 20C25.9237 20.1839 24.6227 21.2256 24.1101 22.6253C23.9583 23.0399 24.1835 23.4948 24.6131 23.6413C25.0427 23.7879 25.514 23.5706 25.6658 23.1559C25.9518 22.3749 26.6463 21.7815 27.5 21.6124V20ZM27.5 31.9146H25.8C25.4962 31.9146 25.25 32.1523 25.25 32.4454V34.7401C25.25 34.9572 25.3869 35.1524 25.5957 35.233L26.3659 35.5303C26.7326 35.6719 27.1141 35.764 27.5 35.8065V31.9146ZM28.5 35.8065V31.9146H30.2C30.5038 31.9146 30.75 32.1523 30.75 32.4454V34.7401C30.75 34.9572 30.6131 35.1524 30.4043 35.233L29.6341 35.5303C29.2674 35.6719 28.8859 35.764 28.5 35.8065ZM28.5 21.6123V20C30.0765 20.1837 31.3777 21.2255 31.8903 22.6253C32.0421 23.0399 31.817 23.4948 31.3874 23.6413C30.9578 23.7879 30.4864 23.5706 30.3346 23.1559C30.0485 22.3748 29.3539 21.7813 28.5 21.6123Z" fill="white"/>
</svg>
