<svg width="960" height="14" viewBox="0 0 960 14" fill="none" xmlns="http://www.w3.org/2000/svg">
<path fill-rule="evenodd" clip-rule="evenodd" d="M928.176 0L940.409 13.5172H960V14H0V13.5172H19.5913L31.824 0H928.176ZM334.84 13.5172L323.045 0.482759H330.432L336.931 7.24138H385.803L380.124 13.5172H334.84ZM322.35 0.482759L334.146 13.5172H326.758L320.26 6.75862H271.388L277.067 0.482759H322.35ZM637.65 0.482759L625.854 13.5172H633.242L639.74 6.75862H688.612L682.933 0.482759H637.65ZM625.16 13.5172L636.955 0.482759H629.568L623.069 7.24138H574.197L579.876 13.5172H625.16ZM932.377 13.5172H939.765L927.969 0.482759H882.686L877.006 6.75862H925.878L932.377 13.5172ZM882.042 0.482759H874.654L868.155 7.24138H819.283L824.963 13.5172H870.246L882.042 0.482759ZM867.957 6.75862L873.991 0.482759H813.167L818.846 6.75862H867.957ZM812.523 0.482759H753.096L741.3 13.5172H748.688L755.186 6.75862H810.432L816.931 13.5172H824.319L812.523 0.482759ZM746.772 6.75862L752.452 0.482759H691.628L697.662 6.75862H746.772ZM690.965 0.482759H683.577L695.373 13.5172H740.656L746.335 7.24138H697.463L690.965 0.482759ZM639.939 7.24138L633.905 13.5172H694.729L689.049 7.24138H639.939ZM755.385 7.24138L749.351 13.5172H816.268L810.234 7.24138H755.385ZM876.569 7.24138L870.89 13.5172H931.714L925.68 7.24138H876.569ZM380.768 13.5172H388.156L394.654 6.75862H443.526L437.847 0.482759H392.563L380.768 13.5172ZM394.853 7.24138L388.818 13.5172H449.642L443.963 7.24138H394.853ZM450.286 13.5172H509.714L521.509 0.482759H514.121L507.623 7.24138H452.377L445.879 0.482759H438.491L450.286 13.5172ZM516.037 7.24138L510.358 13.5172H571.182L565.147 7.24138H516.037ZM571.845 13.5172H579.232L567.437 0.482759H522.153L516.474 6.75862H565.346L571.845 13.5172ZM622.87 6.75862L628.905 0.482759H568.081L573.76 6.75862H622.87ZM507.424 6.75862L513.459 0.482759H446.541L452.576 6.75862H507.424ZM386.24 6.75862L391.919 0.482759H331.095L337.13 6.75862H386.24ZM20.2353 13.5172H27.6232L34.1219 6.75862H82.9938L77.3143 0.482759H32.0311L20.2353 13.5172ZM85.3463 0.482759H77.9583L89.7541 13.5172H135.037L140.717 7.24138H91.8448L85.3463 0.482759ZM86.0091 0.482759L92.0435 6.75862H141.154L146.833 0.482759H86.0091ZM206.904 0.482759H147.477L135.681 13.5172H143.069L149.568 6.75862H204.814L211.312 13.5172H218.7L206.904 0.482759ZM207.548 0.482759L213.228 6.75862H262.338L268.372 0.482759H207.548ZM276.423 0.482759H269.035L262.537 7.24138H213.665L219.344 13.5172H264.627L276.423 0.482759ZM326.095 13.5172L320.061 7.24138H270.951L265.271 13.5172H326.095ZM210.649 13.5172L204.615 7.24138H149.767L143.732 13.5172H210.649ZM89.1101 13.5172L83.4307 7.24138H34.3205L28.2861 13.5172H89.1101Z" fill="#5E5C61"/>
</svg>
