<svg width="354" height="14" viewBox="0 0 354 14" fill="none" xmlns="http://www.w3.org/2000/svg">
<path fill-rule="evenodd" clip-rule="evenodd" d="M322.602 0H31.824L19.5913 13.5172H0V14H354V13.5172H334.84L323.045 0.482759L322.602 0ZM334.146 13.5172L322.35 0.482759H277.067L271.388 6.75862H320.26L326.758 13.5172H334.146ZM27.6232 13.5172H20.2353L32.0311 0.482759H77.3143L82.9938 6.75862H34.1219L27.6232 13.5172ZM77.9583 0.482759H85.3463L91.8448 7.24138H140.717L135.037 13.5172H89.7541L77.9583 0.482759ZM92.0435 6.75862L86.0091 0.482759H146.833L141.154 6.75862H92.0435ZM147.477 0.482759H206.904L218.7 13.5172H211.312L204.814 6.75862H149.568L143.069 13.5172H135.681L147.477 0.482759ZM213.228 6.75862L207.548 0.482759H268.372L262.338 6.75862H213.228ZM269.035 0.482759H276.423L264.627 13.5172H219.344L213.665 7.24138H262.537L269.035 0.482759ZM320.061 7.24138L326.095 13.5172H265.271L270.951 7.24138H320.061ZM204.615 7.24138L210.649 13.5172H143.732L149.767 7.24138H204.615ZM83.4307 7.24138L89.1101 13.5172H28.2861L34.3205 7.24138H83.4307Z" fill="#5E5C61"/>
</svg>
