<svg width="354" height="14" viewBox="0 0 354 14" fill="none" xmlns="http://www.w3.org/2000/svg">
<path fill-rule="evenodd" clip-rule="evenodd" d="M31.3984 14H322.176L334.409 0.482759H354V0H0V0.482759H19.1597L30.9554 13.5172L31.3984 14ZM19.8538 0.482759L31.6496 13.5172H76.9328L82.6122 7.24138H33.7404L27.2417 0.482759H19.8538ZM326.377 0.482759H333.765L321.969 13.5172H276.686L271.006 7.24138H319.878L326.377 0.482759ZM276.042 13.5172H268.654L262.155 6.75862H213.283L218.963 0.482759H264.246L276.042 13.5172ZM261.956 7.24138L267.991 13.5172H207.167L212.846 7.24138H261.956ZM206.523 13.5172H147.096L135.3 0.482759H142.688L149.186 7.24138H204.432L210.931 0.482759H218.319L206.523 13.5172ZM140.772 7.24138L146.452 13.5172H85.6276L91.662 7.24138H140.772ZM84.9647 13.5172H77.5768L89.3726 0.482759H134.656L140.335 6.75862H91.4634L84.9647 13.5172ZM33.9389 6.75862L27.9045 0.482759H88.7286L83.0491 6.75862H33.9389ZM149.385 6.75862L143.351 0.482759H210.268L204.233 6.75862H149.385ZM270.569 6.75862L264.89 0.482759H325.714L319.68 6.75862H270.569Z" fill="#5E5C61"/>
</svg>
