<svg width="24" height="24" viewBox="0 0 24 24" fill="none" xmlns="http://www.w3.org/2000/svg">
<path d="M5 7.49902V9.16602C4.48306 9.84835 4.05539 10.6042 3.7299 11.4129L7.5 15.4343V15.2C7.5 14.5697 7.6164 13.9455 7.84254 13.3631C8.06869 12.7808 8.40016 12.2516 8.81802 11.8059C8.85467 11.7668 8.89192 11.7284 8.92975 11.6908L5 7.49902Z" fill="url(#paint0_linear_95_2014)"/>
<path d="M9.99134 12.8231C9.38262 13.4088 9 14.2567 9 15.2V17.0343L9.78446 17.8711L12.2541 15.2368L9.99134 12.8231Z" fill="url(#paint1_linear_95_2014)"/>
<path d="M12.7845 14.6711L10.6173 12.3594C11.0311 12.1298 11.5013 12 12 12C12.9019 12 13.7108 12.4245 14.2607 13.0964L12.7845 14.6711Z" fill="url(#paint2_linear_95_2014)"/>
<path d="M9.52325 11.1924L5 6.36765V4H9V6.14903C9.96243 5.78607 10.9769 5.6 12 5.6C13.1819 5.6 14.3522 5.84831 15.4442 6.33076C16.5361 6.8132 17.5282 7.52033 18.364 8.41177C18.4121 8.46311 18.4596 8.515 18.5066 8.56743L15.323 11.9633C15.2772 11.9097 15.2301 11.8573 15.182 11.8059C14.7641 11.3602 14.268 11.0066 13.7221 10.7654C13.1761 10.5242 12.5909 10.4 12 10.4C11.4091 10.4 10.8239 10.5242 10.2779 10.7654C10.0136 10.8822 9.76097 11.0253 9.52325 11.1924Z" fill="url(#paint3_linear_95_2014)"/>
<path d="M19.0027 9.16962L17.8148 10.4368L20.8923 13.7195C20.7824 12.9683 20.5889 12.2319 20.3149 11.5262C19.9848 10.6762 19.5425 9.88281 19.0027 9.16962Z" fill="url(#paint4_linear_95_2014)"/>
<path d="M15.7843 12.6026L17.2845 11.0024L20.9973 14.9628C20.9991 15.0418 21 15.1209 21 15.2V20H16.5V15.2C16.5 14.5697 16.3836 13.9455 16.1575 13.3631C16.0544 13.0976 15.9294 12.8432 15.7843 12.6026Z" fill="url(#paint5_linear_95_2014)"/>
<path d="M14.6863 13.7738L10.3148 18.4368L11.7803 20H15V15.2C15 14.6875 14.8871 14.2032 14.6863 13.7738Z" fill="url(#paint6_linear_95_2014)"/>
<path d="M5.50413 14.4368L3.44001 12.235C3.14894 13.1911 3 14.1916 3 15.2V17.1078L5.50413 14.4368Z" fill="url(#paint7_linear_95_2014)"/>
<path d="M6.03446 15.0024L3 18.2392V20H7.5V16.5657L6.03446 15.0024Z" fill="url(#paint8_linear_95_2014)"/>
<path d="M9 18.1657L10.7197 20H9V18.1657Z" fill="url(#paint9_linear_95_2014)"/>
<defs>
<linearGradient id="paint0_linear_95_2014" x1="12" y1="4" x2="12" y2="20" gradientUnits="userSpaceOnUse">
<stop stop-color="#FFE600"/>
<stop offset="1" stop-color="#FF8A00"/>
</linearGradient>
<linearGradient id="paint1_linear_95_2014" x1="12" y1="4" x2="12" y2="20" gradientUnits="userSpaceOnUse">
<stop stop-color="#FFE600"/>
<stop offset="1" stop-color="#FF8A00"/>
</linearGradient>
<linearGradient id="paint2_linear_95_2014" x1="12" y1="4" x2="12" y2="20" gradientUnits="userSpaceOnUse">
<stop stop-color="#FFE600"/>
<stop offset="1" stop-color="#FF8A00"/>
</linearGradient>
<linearGradient id="paint3_linear_95_2014" x1="12" y1="4" x2="12" y2="20" gradientUnits="userSpaceOnUse">
<stop stop-color="#FFE600"/>
<stop offset="1" stop-color="#FF8A00"/>
</linearGradient>
<linearGradient id="paint4_linear_95_2014" x1="12" y1="4" x2="12" y2="20" gradientUnits="userSpaceOnUse">
<stop stop-color="#FFE600"/>
<stop offset="1" stop-color="#FF8A00"/>
</linearGradient>
<linearGradient id="paint5_linear_95_2014" x1="12" y1="4" x2="12" y2="20" gradientUnits="userSpaceOnUse">
<stop stop-color="#FFE600"/>
<stop offset="1" stop-color="#FF8A00"/>
</linearGradient>
<linearGradient id="paint6_linear_95_2014" x1="12" y1="4" x2="12" y2="20" gradientUnits="userSpaceOnUse">
<stop stop-color="#FFE600"/>
<stop offset="1" stop-color="#FF8A00"/>
</linearGradient>
<linearGradient id="paint7_linear_95_2014" x1="12" y1="4" x2="12" y2="20" gradientUnits="userSpaceOnUse">
<stop stop-color="#FFE600"/>
<stop offset="1" stop-color="#FF8A00"/>
</linearGradient>
<linearGradient id="paint8_linear_95_2014" x1="12" y1="4" x2="12" y2="20" gradientUnits="userSpaceOnUse">
<stop stop-color="#FFE600"/>
<stop offset="1" stop-color="#FF8A00"/>
</linearGradient>
<linearGradient id="paint9_linear_95_2014" x1="12" y1="4" x2="12" y2="20" gradientUnits="userSpaceOnUse">
<stop stop-color="#FFE600"/>
<stop offset="1" stop-color="#FF8A00"/>
</linearGradient>
</defs>
</svg>
